<?xml version="1.0" encoding="utf-8"?>
<!-- Generator: Adobe Illustrator 24.3.0, SVG Export Plug-In . SVG Version: 6.00 Build 0)  -->
<svg version="1.1" id="Layer_1" xmlns="http://www.w3.org/2000/svg" xmlns:xlink="http://www.w3.org/1999/xlink" x="0px" y="0px"
	 viewBox="0 0 1080 1080" style="enable-background:new 0 0 1080 1080;" xml:space="preserve">
<style type="text/css">
	.st0{fill:#FFFFFF;}
</style>
<g>
	<g>
		<path class="st0" d="M70.05,639.06c-10.33,0-19.8-1.12-28.43-3.34c-8.63-2.22-13.24-5.18-13.85-8.89
			c-1.22-36.8-1.82-74.16-1.82-112.07c0-48.78,1.46-96.89,4.37-144.31c0.49-2.59,3.85-4.54,10.11-5.83
			c6.26-1.3,13.64-1.95,22.14-1.95c7.53,0,15.03,0.5,22.5,1.49c7.47,0.99,13.69,2.47,18.68,4.44c4.98,1.98,7.47,4.45,7.47,7.41
			l-0.18,4.81c11.05-2.96,21.5-4.44,31.34-4.44c15.91,0,30.16,3.24,42.73,9.72c12.57,6.48,23.26,15.04,32.07,25.66
			c8.81,10.62,15.51,22.48,20.13,35.57c4.61,13.09,6.93,26.24,6.93,39.46c0,11.24-1.79,22.04-5.37,32.41
			c-3.58,10.38-9.11,19.64-16.59,27.79c-7.47,8.15-17.03,14.61-28.7,19.36c-11.67,4.75-25.51,7.13-41.55,7.13
			c-13.24,0-28.06-1.86-44.46-5.56l1.28,56.32c0,3.46-1.88,6.27-5.65,8.43c-3.77,2.16-8.6,3.76-14.48,4.81
			C82.84,638.53,76.61,639.06,70.05,639.06z M120.71,530.14c8.99,0,16.4-2.41,22.23-7.22c5.83-4.82,10.14-11.11,12.94-18.9
			c2.79-7.78,4.19-16.05,4.19-24.82c0-10.49-1.85-20.71-5.56-30.66c-3.71-9.94-9.08-18.18-16.13-24.73
			c-7.05-6.55-15.61-9.82-25.69-9.82l-3.65,0.19c-1.34,33.22-2,66.63-2,100.22v15.75H120.71z"/>
		<path class="st0" d="M425.74,619.98c-9.72,0-18.41-0.9-26.06-2.68c-7.65-1.79-11.78-4.36-12.39-7.69l-0.54-8.52
			c-17.01,4.94-32.38,7.41-46.1,7.41c-15.19,0-28.34-2.56-39.45-7.69c-11.12-5.12-20.29-12.07-27.52-20.84
			c-7.23-8.77-12.61-18.74-16.13-29.92c-3.53-11.17-5.28-22.75-5.28-34.73c0-14.08,2.28-28,6.84-41.77
			c4.56-13.77,11.3-26.27,20.22-37.52c8.93-11.23,19.89-20.25,32.89-27.05c13-6.79,27.88-10.19,44.64-10.19
			c7.53,0,15.37,0.74,23.51,2.22l0.55-10.74c0.49-2.72,4.43-4.81,11.85-6.3c7.41-1.48,15.85-2.22,25.33-2.22
			c7.04,0,13.94,0.43,20.68,1.3c6.74,0.86,12.27,2.16,16.58,3.89c4.31,1.73,6.47,3.89,6.47,6.48l-0.18,17.97
			c0,21.49,0.58,50.42,1.73,86.79c1.15,36.37,2.82,71.72,5.01,106.05v0.56c0,3.58-2.1,6.48-6.29,8.7
			c-4.19,2.22-9.57,3.86-16.13,4.91C439.4,619.46,432.66,619.98,425.74,619.98z M376.17,561.63c2.55,0,5.23-0.25,8.02-0.75
			c-2.91-45.69-4.37-86.14-4.37-121.34v-6.11c-9.84,0.99-18.04,4.82-24.6,11.48c-6.56,6.67-11.48,15.07-14.76,25.2
			c-3.28,10.13-4.92,20.63-4.92,31.49c0,10.13,1.48,19.79,4.46,28.99c2.98,9.2,7.5,16.67,13.58,22.41
			C359.65,558.76,367.18,561.63,376.17,561.63z"/>
		<path class="st0" d="M532.97,581.28c-10.93,0-21.2-1.23-30.79-3.7c-9.6-2.47-14.4-5.62-14.4-9.45l-0.18-35.01
			c0-83.98,2.98-157.77,8.93-221.37c0.36-2.35,3.31-4.11,8.84-5.28c5.53-1.17,12.12-1.76,19.77-1.76c7.77,0,15.7,0.55,23.78,1.66
			c8.08,1.11,14.82,2.75,20.22,4.91c5.41,2.16,8.11,4.79,8.11,7.87v0.37c-5.59,61.5-8.38,136.1-8.38,223.78v23.71
			c0,5.06-3.53,8.71-10.57,10.93C551.26,580.17,542.81,581.28,532.97,581.28z"/>
		<path class="st0" d="M680.13,645.19c-8.99,0-17.86-1.82-26.6-5.47s-16.65-9.54-23.69-17.69c-7.05-8.15-12.7-18.96-16.94-32.42
			c-4.25-13.46-6.38-30.07-6.38-49.83c0.12-16.18,0.48-32.23,1.09-48.16l-8.93,0.37c-4.74,0-8.17-2.07-10.29-6.2
			c-2.12-4.14-3.19-8.62-3.19-13.43c0-4.07,0.67-7.81,2.01-11.21c1.33-3.4,3.22-5.59,5.65-6.58c3.4-1.23,8.81-2.28,16.22-3.15
			c1.09-24.33,2.37-48.22,3.83-71.69c0.61-3.46,4.7-6.11,12.3-7.96c7.59-1.85,16.18-2.78,25.78-2.78c7.05,0,13.85,0.56,20.41,1.67
			c6.56,1.11,11.96,2.84,16.22,5.18c4.25,2.35,6.38,5.37,6.38,9.08c-0.24,4.32-1.34,13.65-3.28,27.97
			c-1.34,9.88-2.86,21.67-4.56,35.38c4.74,0.13,9.11,0.4,13.12,0.84c4.01,0.43,7.04,2.99,9.11,7.69c2.06,4.7,3.1,9.82,3.1,15.38
			c0,4.94-0.94,9.45-2.82,13.52c-1.88,4.08-4.83,6.12-8.84,6.12l-4.92-0.56c-3.28-0.37-7.9-0.68-13.85-0.93
			c-4.62,41.13-6.93,71.75-6.93,91.88c0,18.28,2.01,27.48,6.02,27.6c3.16,0,6.92-3.64,11.3-10.93c4.37-7.29,8.32-16.36,11.84-27.23
			c1.83-5.55,5.53-8.33,11.12-8.33c4.38,0,9.14,1.55,14.31,4.63c5.16,3.09,9.57,6.7,13.21,10.84c3.64,4.14,5.46,7.87,5.46,11.21
			c0,0.62-0.06,1.17-0.18,1.67c-2.68,9.88-6.68,18.86-12.03,26.95c-5.35,8.09-12.45,14.54-21.32,19.36
			C704.97,642.79,693.73,645.19,680.13,645.19z"/>
	</g>
	<g>
		<path class="st0" d="M782.84,574.57c-14.9-6-26.02-13.99-33.35-23.96c-7.34-9.97-11.79-21.2-13.34-33.69
			c-1.56-12.49-1.2-25.48,1.07-38.98c2.27-13.5,5.58-26.85,9.91-40.05c4.33-13.2,8.59-25.35,12.77-36.46
			c5.44-13.92,10.28-25.07,14.52-33.45l2.99-6.36c1.54-2.51,5.43-3.37,11.7-2.59c6.26,0.78,13,2.58,20.23,5.39
			c5.42,2.11,10.53,4.57,15.33,7.4c4.8,2.82,8.53,5.75,11.18,8.79c2.65,3.04,3.49,5.87,2.5,8.49l-2.95,6.67
			c-6.87,15.37-13.29,30.97-19.25,46.79c-8.36,22.21-14.01,40.61-16.95,55.21c-3.77,18.38-2.38,28.85,4.15,31.39
			c11.58,3.81,23.73-4.5,36.45-24.91c9.34-15.11,18.93-35.74,28.78-61.88c3.29-8.74,6.07-16.38,8.34-22.92l3.18-8.84
			c1.05-2.8,3.93-4.03,8.64-3.7c4.71,0.33,9.6,1.48,14.67,3.46c4.9,1.91,9.18,4.23,12.84,6.95c3.65,2.73,5.07,5.18,4.25,7.37
			c-1.81,4.81-4,10.87-6.56,18.2c-3.19,8.99-6.39,17.76-9.62,26.33c-2.21,5.86-4.32,11.2-6.34,16.03
			C864.65,561.71,826.27,591.48,782.84,574.57z"/>
	</g>
	<g>
		<path class="st0" d="M930.19,418.23c-2.65-3.16-5.49-6.68-8.52-10.57c-4.43-5.69-8.9-11.54-13.39-17.55
			c-3.64-4.91-6.7-8.96-9.19-12.15c-1.13-1.45-0.63-3.65,1.49-6.58c2.12-2.94,4.81-5.72,8.07-8.34c3.37-2.71,6.79-4.76,10.26-6.14
			c3.48-1.38,5.94-1.14,7.39,0.71l4.46,5.9c3.23,4.39,7.11,9.48,11.63,15.28c13.52,17.35,25.57,30.6,36.14,39.75
			c14.35,12.34,25.45,15.67,33.3,10.01c4.34-3.5,2.94-11.72-4.18-24.68c-5.61-10.31-14.17-22.83-25.66-37.57
			c-8.18-10.5-16.66-20.72-25.43-30.66l-3.78-4.32c-1.36-1.74-1.39-4.08-0.1-7.01c1.29-2.93,3.42-6.04,6.39-9.32
			c2.97-3.29,6.25-6.38,9.84-9.28c4.8-3.86,9.46-6.84,14-8.94c4.54-2.1,7.69-2.39,9.43-0.87l3.73,4.08
			c5.15,5.3,11.4,12.54,18.75,21.73c5.74,7.37,11.79,15.51,18.13,24.43c6.35,8.92,11.95,18.19,16.81,27.83
			c4.86,9.64,8.16,19.35,9.9,29.15c1.74,9.8,1,19.34-2.21,28.63c-3.21,9.29-9.74,18-19.58,26.11
			C1009.05,481.09,973.16,467.87,930.19,418.23z"/>
	</g>
	<path class="st0" d="M737.91,304.99c11.05,2.8,21.06,9.64,27.8,18.97c2.24,3.1,4.19,6.76,3.83,10.59
		c-0.51,5.3-5.26,9.15-10.08,11.23c-6.96,3.01-15.07,3.64-22.1,0.8C717.83,338.68,719.2,313.07,737.91,304.99z"/>
	<path class="st0" d="M773.19,303.39c-16.79-12.31-29.74-31.11-31.75-52.05c-2.01-20.94,8.56-43.49,27.44-52.12
		c6.65-3.04,14.81-4.19,21.01-0.27c5,3.16,7.72,8.92,9.94,14.46c10.2,25.52,15.19,52.91,17.75,80.33
		c1.01,10.89-1.51,22.67-14.38,21.79C792.24,314.79,781.99,309.85,773.19,303.39z"/>
	<path class="st0" d="M822.35,190.28c-0.36-9.25,0.39-19.05,5.52-26.7c5.34-7.98,14.58-12.31,23.73-14.87
		c9.31-2.6,19.32-3.71,28.55-0.87c11.81,3.64,21.12,13.58,26.06,25.08s5.91,24.42,4.88,36.93c-1.15,14.03-4.68,27.74-8.2,41.36
		c-2.02,7.82-4.08,15.74-8.07,22.74c-3.98,7-10.19,13.07-17.91,15.01c-14.89,3.74-24.32-9.11-30.56-20.41
		c-8.58-15.54-15.64-32.07-19.86-49.4C824.19,209.69,822.73,200.02,822.35,190.28z"/>
	<path class="st0" d="M964.39,203.28c10.74,5.14,17.26,17.01,18.8,28.97c1.58,12.28-1.5,25.12-8.48,35.27
		c-4.36,6.34-10.39,11.76-17.67,14.01c-7.28,2.25-15.86,0.89-21.28-4.55c-5.3-5.31-6.81-13.35-7.42-20.89
		c-1.01-12.38-2.44-31.92,3.91-43.15C938.39,202.11,953.59,198.11,964.39,203.28z"/>
</g>
<g>
	<path class="st0" d="M196.03,927.12c-5.75,0-11.03-0.6-15.83-1.81c-4.8-1.2-7.37-2.84-7.71-4.9c-0.68-20.49-1.02-41.33-1.02-62.51
		c0-27.23,0.81-54.01,2.44-80.35c0.2-1.44,2.06-2.53,5.58-3.25c3.52-0.72,7.61-1.08,12.28-1.08c4.19,0,8.39,0.28,12.58,0.83
		c4.19,0.55,7.68,1.38,10.45,2.48c2.77,1.1,4.16,2.48,4.16,4.13v0.21c-0.68,10.11-1.22,20.46-1.62,31.05
		c6.56-1.65,12.75-2.48,18.57-2.48c9.13,0,17.23,1.77,24.3,5.31c7.07,3.54,13.02,8.25,17.86,14.13c4.84,5.88,8.51,12.45,11.01,19.7
		c2.5,7.26,3.75,14.56,3.75,21.92c0,6.4-0.98,12.55-2.94,18.46c-1.96,5.91-4.94,11.19-8.93,15.83c-3.99,4.64-9.03,8.32-15.12,11.04
		c-6.09,2.72-13.29,4.07-21.61,4.07c-7.85,0-16.74-1.44-26.68-4.33l0.1,3.3c0,1.99-1.03,3.59-3.09,4.8
		c-2.06,1.2-4.75,2.08-8.07,2.63C203.16,926.84,199.68,927.12,196.03,927.12z M223.93,893.8c5.01,0,9.16-1.5,12.48-4.49
		c3.31-2.99,5.82-6.84,7.51-11.55c1.69-4.71,2.54-9.71,2.54-15.01c0-5.57-0.95-10.95-2.84-16.14c-1.89-5.19-4.72-9.45-8.47-12.79
		c-3.75-3.33-8.41-5-13.95-5c-1.42,0-2.88,0.1-4.36,0.31c-0.2,9.28-0.3,18.6-0.3,27.95c0,11.96,0.13,23.86,0.41,35.69
		C219.43,893.46,221.76,893.8,223.93,893.8z"/>
	<path class="st0" d="M396.51,920.93c-5.41,0-10.25-0.5-14.51-1.5c-4.26-1-6.56-2.42-6.9-4.28l-0.3-4.74
		c-9.47,2.75-18.03,4.13-25.67,4.13c-8.46,0-15.78-1.43-21.97-4.28c-6.19-2.85-11.3-6.72-15.32-11.6
		c-4.02-4.88-7.02-10.43-8.98-16.66c-1.96-6.22-2.94-12.67-2.94-19.34c0-7.84,1.27-15.59,3.8-23.26
		c2.54-7.67,6.29-14.63,11.26-20.89c4.97-6.26,11.07-11.28,18.31-15.06c7.24-3.78,15.52-5.67,24.86-5.67
		c4.19,0,8.56,0.41,13.09,1.24l0.3-5.98c0.27-1.51,2.47-2.68,6.59-3.51c4.12-0.83,8.83-1.24,14.1-1.24c3.92,0,7.76,0.24,11.52,0.72
		c3.75,0.48,6.83,1.2,9.23,2.17c2.4,0.96,3.6,2.17,3.6,3.61l-0.1,10.01c0,11.96,0.32,28.07,0.96,48.32
		c0.64,20.25,1.57,39.94,2.79,59.05v0.31c0,1.99-1.17,3.61-3.5,4.85c-2.33,1.24-5.33,2.15-8.98,2.73
		C404.12,920.63,400.37,920.93,396.51,920.93z M368.91,888.44c1.42,0,2.91-0.14,4.46-0.41c-1.62-25.44-2.44-47.96-2.44-67.56v-3.4
		c-5.48,0.55-10.04,2.68-13.7,6.4c-3.65,3.71-6.39,8.39-8.22,14.03c-1.83,5.64-2.74,11.48-2.74,17.53c0,5.64,0.83,11.02,2.49,16.14
		c1.66,5.12,4.18,9.28,7.56,12.48C359.71,886.84,363.91,888.44,368.91,888.44z"/>
	<path class="st0" d="M491.48,919.9c-14.81,0-30.57-0.38-47.28-1.13c-4.33-0.34-8.07-2.06-11.21-5.16
		c-3.14-3.09-4.72-6.64-4.72-10.62c0-2.41,0.74-4.81,2.23-7.22c9.67-15.2,19.18-29.76,28.51-43.68
		c9.33-13.92,19.31-27.83,29.93-41.72c-9.74-0.27-19.04-0.41-27.9-0.41c-4.6,0-12.14,0.1-22.63,0.31c-2.37,0-4.3-1.58-5.78-4.74
		c-1.49-3.16-2.23-6.33-2.23-9.49c0-2.2,0.39-4.07,1.17-5.62c0.78-1.55,2.04-2.39,3.81-2.53c7.64-0.27,15.86-0.41,24.65-0.41
		c16.03,0,33.21,0.41,51.54,1.24c8.12,0.62,14.71,3.56,19.78,8.82c5.07,5.26,7.61,10.81,7.61,16.66c0,3.09-0.85,6.02-2.54,8.77
		c-8.86,13.48-17.79,26.1-26.79,37.85c-9,11.76-17.62,23.93-25.87,36.51h8.93c8.52,0,16.1-0.07,22.73-0.21
		c2.37,0,4.29,1.58,5.78,4.74c1.49,3.16,2.23,6.36,2.23,9.59c0,2.13-0.39,3.96-1.17,5.47c-0.78,1.51-2.05,2.34-3.81,2.48
		C510.14,919.73,501.15,919.9,491.48,919.9z"/>
	<path class="st0" d="M630.88,920.93c-5.41,0-10.25-0.5-14.51-1.5c-4.26-1-6.56-2.42-6.9-4.28l-0.3-4.74
		c-9.47,2.75-18.03,4.13-25.67,4.13c-8.46,0-15.78-1.43-21.97-4.28c-6.19-2.85-11.3-6.72-15.32-11.6
		c-4.02-4.88-7.02-10.43-8.98-16.66c-1.96-6.22-2.94-12.67-2.94-19.34c0-7.84,1.27-15.59,3.8-23.26
		c2.54-7.67,6.29-14.63,11.26-20.89c4.97-6.26,11.07-11.28,18.31-15.06c7.24-3.78,15.52-5.67,24.86-5.67
		c4.19,0,8.56,0.41,13.09,1.24l0.3-5.98c0.27-1.51,2.47-2.68,6.6-3.51c4.12-0.83,8.83-1.24,14.1-1.24c3.92,0,7.76,0.24,11.52,0.72
		c3.75,0.48,6.83,1.2,9.23,2.17c2.4,0.96,3.6,2.17,3.6,3.61l-0.1,10.01c0,11.96,0.32,28.07,0.96,48.32
		c0.64,20.25,1.57,39.94,2.79,59.05v0.31c0,1.99-1.17,3.61-3.5,4.85c-2.33,1.24-5.33,2.15-8.98,2.73
		C638.49,920.63,634.73,920.93,630.88,920.93z M603.28,888.44c1.42,0,2.91-0.14,4.46-0.41c-1.62-25.44-2.43-47.96-2.43-67.56v-3.4
		c-5.48,0.55-10.04,2.68-13.7,6.4c-3.65,3.71-6.39,8.39-8.22,14.03c-1.83,5.64-2.74,11.48-2.74,17.53c0,5.64,0.83,11.02,2.49,16.14
		c1.66,5.12,4.18,9.28,7.56,12.48C594.08,886.84,598.28,888.44,603.28,888.44z"/>
	<path class="st0" d="M761.76,920.93c-5.41,0-10.25-0.5-14.51-1.5c-4.26-1-6.56-2.42-6.9-4.28l-0.3-4.74
		c-9.47,2.75-18.03,4.13-25.67,4.13c-8.46,0-15.78-1.43-21.97-4.28c-6.19-2.85-11.3-6.72-15.32-11.6
		c-4.02-4.88-7.02-10.43-8.98-16.66c-1.96-6.22-2.94-12.67-2.94-19.34c0-7.84,1.27-15.59,3.8-23.26
		c2.54-7.67,6.29-14.63,11.26-20.89c4.97-6.26,11.07-11.28,18.31-15.06c7.24-3.78,15.52-5.67,24.86-5.67
		c4.19,0,8.56,0.41,13.09,1.24l0.3-5.98c0.27-1.51,2.47-2.68,6.59-3.51c4.12-0.83,8.83-1.24,14.1-1.24c3.92,0,7.76,0.24,11.52,0.72
		c3.75,0.48,6.83,1.2,9.23,2.17c2.4,0.96,3.6,2.17,3.6,3.61l-0.1,10.01c0,11.96,0.32,28.07,0.96,48.32
		c0.64,20.25,1.57,39.94,2.79,59.05v0.31c0,1.99-1.17,3.61-3.5,4.85c-2.33,1.24-5.33,2.15-8.98,2.73
		C769.37,920.63,765.61,920.93,761.76,920.93z M734.16,888.44c1.42,0,2.91-0.14,4.46-0.41c-1.62-25.44-2.43-47.96-2.43-67.56v-3.4
		c-5.48,0.55-10.04,2.68-13.7,6.4c-3.65,3.71-6.39,8.39-8.22,14.03c-1.83,5.64-2.74,11.48-2.74,17.53c0,5.64,0.83,11.02,2.49,16.14
		c1.66,5.12,4.18,9.28,7.56,12.48C724.96,886.84,729.16,888.44,734.16,888.44z"/>
	<path class="st0" d="M829.64,919.59c-5.88,0-11.14-0.52-15.78-1.55c-4.63-1.03-7.12-2.48-7.46-4.33
		c-1.15-16.64-2.2-48.07-3.15-94.27l-0.51-22.07c0-2.82,2.55-5.14,7.66-6.96c5.11-1.82,10.91-2.77,17.4-2.84
		c5.14,0,9.74,0.86,13.8,2.58c4.06,1.72,6.29,4.54,6.7,8.46l1.72,25.06c1.96-7.15,4.58-13.46,7.86-18.93
		c3.28-5.47,7.24-9.75,11.87-12.84c4.63-3.09,9.93-4.64,15.88-4.64c10.55,0,22.39,5.23,35.51,15.68c1.49,1.38,2.23,3.54,2.23,6.5
		c0,3.09-0.69,6.72-2.08,10.88c-1.39,4.16-3.2,8.18-5.43,12.07c-2.23,3.89-4.7,7.12-7.41,9.7c-2.71,2.58-5.45,3.87-8.22,3.87
		c-1.42,0-2.84-0.45-4.26-1.34c-9.13-6.4-17.01-9.59-23.64-9.59c-3.18,0-6.14,0.93-8.88,2.79c-2.74,1.86-5.04,4.97-6.9,9.33
		c-1.86,4.37-3.1,10.26-3.7,17.69l3.25,45.9c0,2.06-1.3,3.75-3.91,5.05c-2.6,1.31-5.94,2.27-9.99,2.89
		C838.16,919.28,833.96,919.59,829.64,919.59z"/>
</g>
</svg>
