<?xml version="1.0" encoding="utf-8"?>
<!-- Generator: Adobe Illustrator 24.3.0, SVG Export Plug-In . SVG Version: 6.00 Build 0)  -->
<svg version="1.1" id="Layer_1" xmlns="http://www.w3.org/2000/svg" xmlns:xlink="http://www.w3.org/1999/xlink" x="0px" y="0px"
	 viewBox="0 0 3000 3000" style="enable-background:new 0 0 3000 3000;" xml:space="preserve">
<style type="text/css">
	.st0{fill:#A03048;}
</style>
<g>
	<path class="st0" d="M505.04,1935.86c-21.71,0-41.63-2.31-59.77-6.9s-27.84-10.72-29.11-18.39c-2.56-76.1-3.83-153.37-3.83-231.78
		c0-100.89,3.06-200.37,9.19-298.45c1.02-5.36,8.1-9.38,21.26-12.06c13.15-2.69,28.67-4.03,46.55-4.03
		c15.84,0,31.61,1.03,47.31,3.07c15.71,2.04,28.79,5.11,39.27,9.19c10.48,4.09,15.71,9.2,15.71,15.33l-0.39,9.96
		c23.24-6.13,45.21-9.19,65.9-9.19c33.45,0,63.41,6.7,89.83,20.11c26.44,13.41,48.91,31.1,67.43,53.06
		c18.51,21.97,32.62,46.49,42.33,73.56c9.7,27.07,14.56,54.27,14.56,81.61c0,23.24-3.77,45.58-11.3,67.04
		c-7.54,21.46-19.16,40.62-34.87,57.47c-15.71,16.86-35.82,30.21-60.33,40.04c-24.53,9.83-53.64,14.75-87.36,14.75
		c-27.85,0-59-3.84-93.48-11.5l2.69,116.47c0,7.15-3.96,12.96-11.88,17.44c-7.92,4.46-18.08,7.78-30.46,9.96
		C531.93,1934.76,518.84,1935.86,505.04,1935.86z M611.56,1710.58c18.89,0,34.47-4.98,46.74-14.94
		c12.26-9.97,21.32-22.99,27.2-39.08c5.87-16.09,8.81-33.2,8.81-51.34c0-21.7-3.9-42.84-11.69-63.41
		c-7.79-20.56-19.1-37.6-33.91-51.14c-14.82-13.54-32.82-20.31-54.02-20.31l-7.67,0.39c-2.81,68.71-4.21,137.8-4.21,207.27v32.56
		H611.56z"/>
	<path class="st0" d="M1252.88,1896.4c-20.44,0-38.7-1.85-54.79-5.55c-16.08-3.71-24.77-9.01-26.05-15.9l-1.14-17.62
		c-35.77,10.22-68.08,15.33-96.93,15.33c-31.93,0-59.58-5.29-82.94-15.9c-23.37-10.59-42.66-24.96-57.86-43.1
		c-15.19-18.14-26.5-38.76-33.91-61.87c-7.41-23.11-11.11-47.06-11.11-71.83c0-29.12,4.79-57.91,14.37-86.39
		c9.58-28.48,23.75-54.34,42.52-77.59c18.78-23.23,41.82-41.89,69.16-55.94c27.33-14.04,58.62-21.07,93.86-21.07
		c15.84,0,32.31,1.53,49.42,4.6l1.15-22.22c1.02-5.62,9.32-9.96,24.91-13.03c15.57-3.06,33.33-4.6,53.25-4.6
		c14.81,0,29.31,0.9,43.48,2.69s25.79,4.47,34.86,8.05s13.61,8.05,13.61,13.41l-0.39,37.16c0,44.44,1.21,104.28,3.64,179.5
		c2.42,75.22,5.94,148.33,10.53,219.33v1.15c0,7.4-4.41,13.41-13.22,18s-20.11,7.99-33.91,10.15
		C1281.62,1895.31,1267.43,1896.4,1252.88,1896.4z M1148.67,1775.72c5.37,0,10.99-0.51,16.86-1.54
		c-6.13-94.5-9.19-178.15-9.19-250.94v-12.64c-20.69,2.05-37.93,9.97-51.72,23.75c-13.8,13.8-24.14,31.16-31.03,52.11
		c-6.9,20.94-10.34,42.66-10.34,65.13c0,20.95,3.12,40.93,9.38,59.96c6.26,19.02,15.77,34.47,28.55,46.35
		C1113.93,1769.78,1129.77,1775.72,1148.67,1775.72z"/>
	<path class="st0" d="M1478.35,1816.36c-22.99,0-44.57-2.55-64.74-7.66c-20.19-5.12-30.27-11.63-30.27-19.54l-0.39-72.41
		c0-173.68,6.26-326.29,18.77-457.83c0.77-4.85,6.96-8.49,18.59-10.92c11.62-2.42,25.47-3.63,41.57-3.63c16.34,0,33.01,1.14,50,3.44
		c16.98,2.3,31.15,5.69,42.52,10.15c11.37,4.47,17.06,9.9,17.06,16.28v0.77c-11.75,127.2-17.62,281.47-17.62,462.81v49.03
		c0,10.47-7.41,18.01-22.22,22.61C1516.8,1814.06,1499.04,1816.36,1478.35,1816.36z"/>
	<path class="st0" d="M1787.75,1948.54c-18.91,0-37.55-3.77-55.94-11.31c-18.39-7.54-35-19.72-49.81-36.58
		c-14.82-16.86-26.69-39.21-35.63-67.05c-8.94-27.84-13.41-62.2-13.41-103.06c0.25-33.45,1.01-66.66,2.3-99.61l-18.78,0.77
		c-9.96,0-17.18-4.27-21.64-12.83c-4.46-8.56-6.7-17.82-6.7-27.78c0-8.42,1.41-16.15,4.22-23.17c2.8-7.03,6.76-11.55,11.88-13.61
		c7.15-2.55,18.51-4.72,34.1-6.51c2.3-50.31,4.98-99.73,8.05-148.27c1.28-7.15,9.89-12.64,25.86-16.47
		c15.96-3.83,34.03-5.75,54.21-5.75c14.82,0,29.12,1.15,42.92,3.45c13.79,2.3,25.15,5.87,34.1,10.72
		c8.94,4.86,13.41,11.11,13.41,18.78c-0.51,8.94-2.82,28.22-6.89,57.85c-2.82,20.44-6,44.83-9.58,73.17
		c9.96,0.26,19.16,0.83,27.58,1.73c8.42,0.9,14.81,6.19,19.16,15.89c4.34,9.71,6.51,20.31,6.51,31.8c0,10.22-1.99,19.54-5.94,27.97
		c-3.96,8.43-10.15,12.65-18.58,12.65l-10.34-1.15c-6.9-0.77-16.61-1.4-29.12-1.92c-9.71,85.06-14.56,148.4-14.56,190.03
		c0,37.8,4.22,56.84,12.65,57.08c6.64,0,14.55-7.53,23.75-22.6c9.19-15.07,17.49-33.84,24.9-56.32
		c3.84-11.49,11.62-17.24,23.37-17.24c9.2,0,19.21,3.2,30.08,9.58c10.85,6.39,20.11,13.86,27.78,22.41
		c7.66,8.57,11.49,16.28,11.49,23.18c0,1.28-0.13,2.43-0.38,3.45c-5.63,20.43-14.05,39.01-25.29,55.74
		c-11.24,16.74-26.18,30.08-44.82,40.03C1839.97,1943.56,1816.36,1948.54,1787.75,1948.54z"/>
</g>
<g>
	<path class="st0" d="M2003.71,1802.49c-31.33-12.41-54.7-28.93-70.13-49.56c-15.43-20.62-24.78-43.85-28.05-69.67
		c-3.28-25.82-2.53-52.69,2.25-80.62c4.78-27.92,11.73-55.53,20.83-82.83c9.1-27.3,18.06-52.43,26.85-75.4
		c11.44-28.79,21.61-51.85,30.53-69.17l6.28-13.15c3.23-5.19,11.43-6.97,24.6-5.35c13.17,1.62,27.34,5.34,42.53,11.16
		c11.39,4.36,22.13,9.46,32.24,15.3c10.1,5.84,17.94,11.9,23.51,18.18c5.58,6.28,7.33,12.13,5.25,17.56l-6.21,13.79
		c-14.45,31.78-27.94,64.04-40.47,96.77c-17.59,45.93-29.47,83.99-35.63,114.17c-7.92,38.02-5.01,59.66,8.73,64.92
		c24.35,7.87,49.89-9.3,76.63-51.52c19.63-31.25,39.8-73.91,60.51-127.97c6.92-18.08,12.77-33.88,17.53-47.4l6.68-18.28
		c2.21-5.78,8.27-8.34,18.18-7.66c9.9,0.68,20.18,3.06,30.85,7.15c10.3,3.94,19.3,8.74,26.99,14.38
		c7.68,5.64,10.66,10.72,8.93,15.24c-3.81,9.95-8.41,22.49-13.79,37.64c-6.7,18.58-13.44,36.74-20.22,54.45
		c-4.64,12.12-9.08,23.17-13.32,33.15C2175.71,1775.88,2095.02,1837.45,2003.71,1802.49z"/>
</g>
<g>
	<path class="st0" d="M2313.52,1479.14c-5.56-6.53-11.54-13.81-17.91-21.85c-9.32-11.76-18.7-23.86-28.16-36.29
		c-7.65-10.15-14.09-18.52-19.32-25.13c-2.38-3-1.33-7.54,3.13-13.61c4.47-6.08,10.12-11.83,16.96-17.25
		c7.08-5.61,14.28-9.85,21.58-12.71c7.31-2.86,12.49-2.37,15.53,1.47l9.37,12.2c6.8,9.07,14.95,19.61,24.46,31.61
		c28.43,35.88,53.76,63.29,75.98,82.21c30.18,25.52,53.52,32.41,70.02,20.71c9.12-7.23,6.19-24.24-8.8-51.05
		c-11.81-21.31-29.79-47.21-53.94-77.69c-17.21-21.72-35.03-42.86-53.47-63.42l-7.96-8.94c-2.85-3.6-2.92-8.43-0.2-14.49
		c2.72-6.06,7.2-12.49,13.43-19.29c6.24-6.8,13.14-13.19,20.7-19.18c10.08-7.99,19.9-14.15,29.45-18.5
		c9.55-4.34,16.16-4.94,19.83-1.79l7.85,8.43c10.83,10.95,23.97,25.94,39.42,44.95c12.08,15.24,24.79,32.08,38.12,50.52
		c13.34,18.44,25.12,37.63,35.35,57.55c10.22,19.93,17.16,40.03,20.81,60.29c3.65,20.26,2.1,40-4.65,59.21
		c-6.75,19.22-20.47,37.22-41.17,54.01C2479.32,1609.14,2403.85,1581.81,2313.52,1479.14z"/>
</g>
<path class="st0" d="M1909.23,1244.96c23.23,5.8,44.29,19.94,58.45,39.24c4.71,6.42,8.82,13.98,8.05,21.91
	c-1.07,10.96-11.06,18.92-21.2,23.23c-14.63,6.22-31.7,7.54-46.46,1.64C1867.03,1314.61,1869.91,1261.66,1909.23,1244.96z"/>
<path class="st0" d="M1983.42,1241.65c-35.29-25.46-62.53-64.33-66.76-107.65c-4.23-43.31,18.01-89.95,57.7-107.8
	c13.99-6.29,31.15-8.66,44.17-0.56c10.51,6.53,16.23,18.45,20.89,29.91c21.45,52.77,31.94,109.43,37.31,166.14
	c2.13,22.52-3.19,46.89-30.23,45.07C2023.47,1265.21,2001.92,1255,1983.42,1241.65z"/>
<path class="st0" d="M2086.78,1007.72c-0.77-19.12,0.83-39.4,11.6-55.22c11.23-16.5,30.65-25.47,49.89-30.75
	c19.57-5.37,40.62-7.68,60.04-1.79c24.83,7.53,44.41,28.08,54.8,51.86c10.39,23.78,12.42,50.51,10.27,76.37
	c-2.41,29.03-9.85,57.37-17.25,85.54c-4.25,16.17-8.59,32.56-16.97,47.03c-8.38,14.47-21.43,27.03-37.66,31.04
	c-31.31,7.74-51.13-18.83-64.24-42.21c-18.04-32.14-32.88-66.32-41.76-102.17C2090.64,1047.86,2087.58,1027.85,2086.78,1007.72z"/>
<path class="st0" d="M2385.42,1034.59c22.59,10.63,36.29,35.17,39.53,59.92c3.33,25.39-3.16,51.95-17.82,72.95
	c-9.16,13.12-21.84,24.32-37.15,28.98s-33.36,1.84-44.75-9.4c-11.14-10.99-14.31-27.61-15.61-43.2
	c-2.13-25.59-5.13-66.02,8.22-89.24C2330.75,1032.17,2362.71,1023.9,2385.42,1034.59z"/>
</svg>
