<?xml version="1.0" encoding="utf-8"?>
<!-- Generator: Adobe Illustrator 24.3.0, SVG Export Plug-In . SVG Version: 6.00 Build 0)  -->
<svg version="1.1" xmlns="http://www.w3.org/2000/svg" xmlns:xlink="http://www.w3.org/1999/xlink" x="0px" y="0px"
	 viewBox="0 0 2210 1173" style="enable-background:new 0 0 2210 1173;" xml:space="preserve">
<style type="text/css">
	.st0{fill:#FFFFFF;}
	.st1{fill:#A03048;}
</style>
<g id="Layer_2">
	<rect x="-6685" y="2289" class="st0" width="3000" height="3000"/>
	<rect x="-3538" y="2289" class="st1" width="3000" height="3000"/>
</g>
<g id="Layer_1">
	<g>
		<g>
			<path class="st1" d="M-5873.34,3891.23c-15.02,0-28.8-1.6-41.35-4.78c-12.55-3.18-19.26-7.42-20.14-12.72
				c-1.77-52.65-2.65-106.11-2.65-160.36c0-69.8,2.12-138.62,6.36-206.48c0.71-3.71,5.61-6.49,14.71-8.35
				c9.1-1.86,19.83-2.79,32.2-2.79c10.96,0,21.87,0.71,32.73,2.13s19.92,3.53,27.17,6.36c7.25,2.83,10.87,6.36,10.87,10.6
				l-0.27,6.89c16.08-4.24,31.27-6.36,45.59-6.36c23.14,0,43.87,4.64,62.15,13.91c18.29,9.28,33.84,21.51,46.65,36.71
				c12.81,15.2,22.57,32.16,29.29,50.89c6.71,18.73,10.07,37.55,10.07,56.46c0,16.08-2.61,31.54-7.82,46.38
				c-5.21,14.85-13.25,28.1-24.12,39.76c-10.87,11.66-24.78,20.9-41.74,27.7c-16.97,6.8-37.11,10.2-60.44,10.2
				c-19.26,0-40.82-2.66-64.67-7.95l1.86,80.58c0,4.95-2.74,8.97-8.22,12.06c-5.48,3.09-12.51,5.38-21.07,6.89
				C-5854.74,3890.47-5863.8,3891.23-5873.34,3891.23z M-5799.65,3735.37c13.07,0,23.85-3.45,32.33-10.34
				c8.48-6.89,14.75-15.9,18.82-27.04c4.06-11.13,6.1-22.97,6.1-35.52c0-15.01-2.69-29.64-8.08-43.87
				c-5.39-14.22-13.21-26.02-23.46-35.38c-10.25-9.37-22.71-14.05-37.37-14.05l-5.31,0.27c-1.94,47.54-2.91,95.33-2.91,143.39v22.53
				H-5799.65z"/>
			<path class="st1" d="M-5355.96,3863.92c-14.14,0-26.77-1.28-37.91-3.84c-11.13-2.56-17.14-6.23-18.02-11l-0.79-12.19
				c-24.75,7.07-47.1,10.6-67.06,10.6c-22.09,0-41.22-3.66-57.38-11c-16.17-7.33-29.51-17.27-40.03-29.82s-18.34-26.81-23.46-42.81
				c-5.13-15.99-7.69-32.56-7.69-49.69c0-20.15,3.32-40.07,9.94-59.77s16.43-37.59,29.42-53.68c12.99-16.07,28.93-28.98,47.84-38.7
				c18.9-9.71,40.56-14.57,64.94-14.57c10.96,0,22.35,1.06,34.19,3.18l0.8-15.37c0.71-3.89,6.45-6.89,17.23-9.01
				c10.77-2.12,23.06-3.18,36.84-3.18c10.24,0,20.28,0.62,30.08,1.86c9.81,1.24,17.84,3.09,24.12,5.57
				c6.27,2.47,9.41,5.57,9.41,9.28l-0.27,25.71c0,30.74,0.84,72.15,2.52,124.18c1.67,52.04,4.11,102.62,7.29,151.74v0.8
				c0,5.12-3.05,9.28-9.15,12.45c-6.1,3.18-13.91,5.53-23.46,7.03C-5336.08,3863.17-5345.9,3863.92-5355.96,3863.92z
				 M-5428.06,3780.44c3.72,0,7.6-0.35,11.66-1.07c-4.24-65.37-6.36-123.25-6.36-173.61v-8.75c-14.31,1.42-26.24,6.89-35.78,16.43
				c-9.54,9.54-16.7,21.56-21.47,36.05c-4.78,14.49-7.16,29.51-7.16,45.06c0,14.5,2.16,28.32,6.49,41.49
				c4.33,13.16,10.91,23.85,19.75,32.07C-5452.09,3776.33-5441.14,3780.44-5428.06,3780.44z"/>
			<path class="st1" d="M-5199.98,3808.55c-15.9,0-30.84-1.77-44.79-5.3c-13.97-3.54-20.94-8.05-20.94-13.52l-0.27-50.09
				c0-120.16,4.33-225.74,12.98-316.74c0.53-3.36,4.81-5.87,12.86-7.56c8.04-1.67,17.62-2.51,28.76-2.51
				c11.3,0,22.84,0.79,34.59,2.38c11.75,1.59,21.55,3.94,29.42,7.03c7.86,3.09,11.8,6.85,11.8,11.26v0.53
				c-8.13,88-12.19,194.73-12.19,320.19v33.92c0,7.24-5.13,12.46-15.37,15.64C-5173.38,3806.96-5185.66,3808.55-5199.98,3808.55z"/>
			<path class="st1" d="M-4985.92,3900c-13.08,0-25.98-2.61-38.7-7.82c-12.72-5.21-24.22-13.65-34.46-25.31
				c-10.25-11.66-18.47-27.13-24.65-46.39c-6.19-19.26-9.28-43.03-9.28-71.3c0.17-23.14,0.7-46.12,1.59-68.91l-12.99,0.53
				c-6.89,0-11.89-2.96-14.97-8.88c-3.09-5.92-4.64-12.33-4.64-19.22c0-5.83,0.97-11.17,2.92-16.03c1.94-4.86,4.68-7.99,8.22-9.41
				c4.95-1.77,12.81-3.26,23.59-4.51c1.59-34.81,3.45-69,5.57-102.58c0.88-4.95,6.84-8.75,17.89-11.4
				c11.04-2.65,23.54-3.98,37.5-3.98c10.25,0,20.15,0.8,29.69,2.39c9.54,1.59,17.4,4.06,23.59,7.42c6.18,3.36,9.28,7.69,9.28,12.99
				c-0.35,6.19-1.95,19.53-4.77,40.02c-1.95,14.14-4.15,31.01-6.63,50.62c6.89,0.18,13.25,0.58,19.08,1.2
				c5.83,0.62,10.24,4.28,13.25,11c3,6.72,4.51,14.05,4.51,22c0,7.07-1.37,13.52-4.11,19.35c-2.74,5.83-7.03,8.75-12.85,8.75
				l-7.16-0.8c-4.78-0.53-11.49-0.97-20.15-1.33c-6.72,58.85-10.07,102.67-10.07,131.47c0,26.15,2.92,39.32,8.75,39.49
				c4.59,0,10.07-5.21,16.43-15.63c6.36-10.43,12.1-23.41,17.22-38.97c2.66-7.95,8.04-11.93,16.17-11.93
				c6.36,0,13.29,2.21,20.81,6.63c7.51,4.42,13.91,9.59,19.22,15.5c5.3,5.93,7.95,11.26,7.95,16.04c0,0.88-0.09,1.68-0.26,2.39
				c-3.89,14.14-9.72,26.99-17.5,38.56c-7.78,11.58-18.11,20.81-31.01,27.7C-4949.8,3896.55-4966.14,3900-4985.92,3900z"/>
		</g>
		<g>
			<path class="st1" d="M-4836.52,3798.95c-21.67-8.59-37.85-20.01-48.52-34.28c-10.67-14.27-17.14-30.34-19.41-48.2
				c-2.27-17.87-1.75-36.46,1.56-55.77c3.31-19.31,8.11-38.42,14.41-57.3c6.3-18.89,12.49-36.28,18.57-52.16
				c7.91-19.92,14.95-35.87,21.12-47.85l4.34-9.09c2.23-3.59,7.9-4.83,17.02-3.7c9.11,1.12,18.92,3.69,29.43,7.72
				c7.88,3.02,15.31,6.54,22.3,10.58c6.98,4.04,12.41,8.23,16.27,12.57c3.86,4.35,5.07,8.4,3.63,12.15l-4.3,9.54
				c-10,21.99-19.33,44.31-28,66.95c-12.17,31.78-20.39,58.1-24.65,78.99c-5.48,26.3-3.47,41.27,6.04,44.91
				c16.84,5.45,34.52-6.43,53.02-35.64c13.58-21.62,27.54-51.13,41.86-88.53c4.79-12.51,8.83-23.44,12.13-32.79l4.62-12.64
				c1.53-4,5.72-5.77,12.58-5.3c6.85,0.47,13.96,2.12,21.34,4.95c7.13,2.73,13.35,6.05,18.68,9.95c5.32,3.9,7.38,7.42,6.18,10.54
				c-2.64,6.88-5.82,15.56-9.54,26.04c-4.64,12.86-9.3,25.42-13.99,37.67c-3.21,8.38-6.28,16.03-9.22,22.94
				C-4717.52,3780.55-4773.35,3823.14-4836.52,3798.95z"/>
		</g>
		<g>
			<path class="st1" d="M-4622.19,3575.25c-3.85-4.52-7.98-9.56-12.39-15.12c-6.45-8.13-12.94-16.51-19.48-25.11
				c-5.29-7.02-9.75-12.82-13.37-17.38c-1.64-2.07-0.92-5.22,2.16-9.42c3.09-4.2,7-8.18,11.73-11.93c4.9-3.88,9.88-6.81,14.93-8.79
				c5.06-1.98,8.64-1.64,10.74,1.02l6.49,8.44c4.7,6.28,10.34,13.57,16.92,21.87c19.67,24.83,37.19,43.78,52.56,56.88
				c20.88,17.65,37.03,22.43,48.44,14.32c6.31-5,4.28-16.77-6.09-35.32c-8.17-14.74-20.61-32.66-37.32-53.75
				c-11.91-15.03-24.24-29.65-36.99-43.87l-5.5-6.18c-1.97-2.49-2.02-5.83-0.14-10.03c1.88-4.19,4.98-8.64,9.29-13.34
				c4.32-4.7,9.09-9.13,14.32-13.27c6.98-5.53,13.77-9.79,20.37-12.8c6.61-3.01,11.18-3.42,13.72-1.24l5.43,5.83
				c7.49,7.58,16.58,17.95,27.27,31.1c8.35,10.54,17.15,22.19,26.38,34.95c9.23,12.76,17.38,26.03,24.45,39.82
				c7.07,13.79,11.87,27.69,14.39,41.71c2.52,14.02,1.45,27.67-3.22,40.97c-4.67,13.3-14.16,25.75-28.48,37.36
				C-4507.48,3665.19-4559.69,3646.29-4622.19,3575.25z"/>
		</g>
		<path class="st1" d="M-4901.88,3413.24c16.07,4.01,30.64,13.79,40.44,27.15c3.26,4.44,6.1,9.68,5.57,15.16
			c-0.74,7.58-7.65,13.09-14.67,16.07c-10.12,4.31-21.93,5.21-32.15,1.14C-4931.08,3461.43-4929.09,3424.8-4901.88,3413.24z"/>
		<path class="st1" d="M-4850.56,3410.95c-24.42-17.62-43.26-44.51-46.19-74.47c-2.93-29.97,12.46-62.23,39.92-74.58
			c9.68-4.35,21.55-5.99,30.56-0.39c7.27,4.52,11.23,12.76,14.45,20.69c14.84,36.51,22.1,75.71,25.81,114.94
			c1.48,15.58-2.2,32.44-20.92,31.18C-4822.85,3427.25-4837.75,3420.19-4850.56,3410.95z"/>
		<path class="st1" d="M-4779.05,3249.11c-0.53-13.23,0.57-27.26,8.02-38.2c7.77-11.41,21.2-17.62,34.51-21.27
			c13.54-3.72,28.1-5.32,41.53-1.24c17.18,5.21,30.72,19.43,37.91,35.88c7.19,16.45,8.59,34.94,7.1,52.83
			c-1.67,20.08-6.81,39.69-11.93,59.18c-2.94,11.19-5.94,22.53-11.74,32.53c-5.8,10.01-14.83,18.7-26.06,21.47
			c-21.66,5.36-35.37-13.03-44.45-29.2c-12.48-22.24-22.75-45.88-28.89-70.68C-4776.38,3276.88-4778.49,3263.04-4779.05,3249.11z"/>
		<path class="st1" d="M-4572.44,3267.71c15.62,7.35,25.11,24.33,27.35,41.45c2.3,17.57-2.19,35.94-12.33,50.47
			c-6.34,9.08-15.11,16.83-25.7,20.05s-23.08,1.27-30.96-6.5c-7.71-7.6-9.9-19.1-10.8-29.89c-1.47-17.71-3.55-45.67,5.69-61.74
			C-4610.26,3266.03-4588.15,3260.31-4572.44,3267.71z"/>
	</g>
	<g>
		<path class="st1" d="M114.04,1095.86c-21.71,0-41.63-2.31-59.77-6.9s-27.84-10.72-29.11-18.39c-2.56-76.1-3.83-153.37-3.83-231.78
			c0-100.89,3.06-200.37,9.19-298.45c1.02-5.36,8.1-9.38,21.26-12.06c13.15-2.69,28.67-4.03,46.55-4.03
			c15.84,0,31.61,1.03,47.31,3.07c15.71,2.04,28.79,5.11,39.27,9.19c10.48,4.09,15.71,9.2,15.71,15.33l-0.39,9.96
			c23.24-6.13,45.21-9.19,65.9-9.19c33.45,0,63.41,6.7,89.83,20.11c26.44,13.41,48.91,31.1,67.43,53.06
			c18.51,21.97,32.62,46.49,42.33,73.56c9.7,27.07,14.56,54.27,14.56,81.61c0,23.24-3.77,45.58-11.3,67.04
			c-7.54,21.46-19.16,40.62-34.87,57.47c-15.71,16.86-35.82,30.21-60.33,40.04c-24.53,9.83-53.64,14.75-87.36,14.75
			c-27.85,0-59-3.84-93.48-11.5l2.69,116.47c0,7.15-3.96,12.96-11.88,17.44c-7.92,4.46-18.08,7.78-30.46,9.96
			C140.93,1094.76,127.84,1095.86,114.04,1095.86z M220.56,870.58c18.89,0,34.47-4.98,46.74-14.94
			c12.26-9.97,21.32-22.99,27.2-39.08c5.87-16.09,8.81-33.2,8.81-51.34c0-21.7-3.9-42.84-11.69-63.41
			c-7.79-20.56-19.1-37.6-33.91-51.14c-14.82-13.54-32.82-20.31-54.02-20.31l-7.67,0.39c-2.81,68.71-4.21,137.8-4.21,207.27v32.56
			H220.56z"/>
		<path class="st1" d="M861.88,1056.4c-20.44,0-38.7-1.85-54.79-5.55c-16.08-3.71-24.77-9.01-26.05-15.9l-1.14-17.62
			c-35.77,10.22-68.08,15.33-96.93,15.33c-31.93,0-59.58-5.29-82.94-15.9c-23.37-10.59-42.66-24.96-57.86-43.1
			s-26.5-38.76-33.91-61.87c-7.41-23.11-11.11-47.06-11.11-71.83c0-29.12,4.79-57.91,14.37-86.39s23.75-54.34,42.52-77.59
			c18.78-23.23,41.82-41.89,69.16-55.94c27.33-14.04,58.62-21.07,93.86-21.07c15.84,0,32.31,1.53,49.42,4.6l1.15-22.22
			c1.02-5.62,9.32-9.96,24.9-13.03c15.57-3.06,33.33-4.6,53.25-4.6c14.81,0,29.31,0.9,43.48,2.69s25.79,4.47,34.86,8.05
			c9.07,3.57,13.61,8.05,13.61,13.41L937.35,625c0,44.44,1.21,104.28,3.64,179.5c2.42,75.22,5.94,148.33,10.53,219.33v1.15
			c0,7.4-4.41,13.41-13.22,18c-8.81,4.6-20.11,7.99-33.91,10.15C890.62,1055.31,876.43,1056.4,861.88,1056.4z M757.67,935.72
			c5.37,0,10.99-0.51,16.86-1.54c-6.13-94.5-9.19-178.15-9.19-250.94v-12.64c-20.69,2.05-37.93,9.97-51.72,23.75
			c-13.8,13.8-24.14,31.16-31.03,52.11c-6.9,20.94-10.34,42.66-10.34,65.13c0,20.95,3.12,40.93,9.38,59.96
			c6.26,19.02,15.77,34.47,28.55,46.35C722.93,929.78,738.77,935.72,757.67,935.72z"/>
		<path class="st1" d="M1087.35,976.36c-22.99,0-44.57-2.55-64.74-7.66c-20.19-5.12-30.27-11.63-30.27-19.54l-0.39-72.41
			c0-173.68,6.26-326.29,18.77-457.83c0.77-4.85,6.96-8.49,18.59-10.92c11.62-2.42,25.47-3.63,41.57-3.63
			c16.34,0,33.01,1.14,50,3.44c16.98,2.3,31.15,5.69,42.52,10.15c11.37,4.47,17.06,9.9,17.06,16.28v0.77
			c-11.75,127.2-17.62,281.47-17.62,462.81v49.03c0,10.47-7.41,18.01-22.22,22.61C1125.8,974.06,1108.04,976.36,1087.35,976.36z"/>
		<path class="st1" d="M1396.75,1108.54c-18.91,0-37.55-3.77-55.94-11.31c-18.39-7.54-35-19.72-49.81-36.58
			c-14.82-16.86-26.69-39.21-35.63-67.05c-8.94-27.84-13.41-62.2-13.41-103.06c0.25-33.45,1.01-66.66,2.3-99.61l-18.78,0.77
			c-9.96,0-17.18-4.27-21.64-12.83c-4.46-8.56-6.7-17.82-6.7-27.78c0-8.42,1.41-16.15,4.22-23.17c2.8-7.03,6.76-11.55,11.88-13.61
			c7.15-2.55,18.51-4.72,34.1-6.51c2.3-50.31,4.98-99.73,8.05-148.27c1.28-7.15,9.89-12.64,25.86-16.47
			c15.96-3.83,34.03-5.75,54.21-5.75c14.82,0,29.12,1.15,42.92,3.45c13.79,2.3,25.15,5.87,34.1,10.72
			c8.94,4.86,13.41,11.11,13.41,18.78c-0.51,8.94-2.82,28.22-6.89,57.85c-2.82,20.44-6,44.83-9.58,73.17
			c9.96,0.26,19.16,0.83,27.58,1.73c8.42,0.9,14.81,6.19,19.16,15.89c4.34,9.71,6.51,20.31,6.51,31.8c0,10.22-1.99,19.54-5.94,27.97
			c-3.96,8.43-10.15,12.65-18.58,12.65l-10.34-1.15c-6.9-0.77-16.61-1.4-29.12-1.92c-9.71,85.06-14.56,148.4-14.56,190.03
			c0,37.8,4.22,56.84,12.65,57.08c6.64,0,14.55-7.53,23.75-22.6c9.19-15.07,17.49-33.84,24.9-56.32
			c3.84-11.49,11.62-17.24,23.37-17.24c9.2,0,19.21,3.2,30.08,9.58c10.85,6.39,20.11,13.86,27.78,22.41
			c7.66,8.57,11.49,16.28,11.49,23.18c0,1.28-0.13,2.43-0.38,3.45c-5.63,20.43-14.05,39.01-25.29,55.74
			c-11.24,16.74-26.18,30.08-44.82,40.03C1448.97,1103.56,1425.36,1108.54,1396.75,1108.54z"/>
	</g>
	<g>
		<path class="st1" d="M1612.71,962.49c-31.33-12.41-54.7-28.93-70.13-49.56c-15.43-20.62-24.78-43.85-28.05-69.67
			c-3.28-25.83-2.53-52.69,2.25-80.62c4.78-27.92,11.73-55.53,20.83-82.83c9.1-27.3,18.06-52.43,26.85-75.4
			c11.44-28.79,21.61-51.85,30.53-69.17l6.28-13.15c3.23-5.19,11.43-6.97,24.6-5.35c13.17,1.62,27.34,5.34,42.53,11.16
			c11.39,4.36,22.13,9.46,32.24,15.3c10.1,5.84,17.94,11.9,23.52,18.18c5.58,6.28,7.33,12.13,5.25,17.56l-6.21,13.79
			c-14.45,31.78-27.94,64.04-40.47,96.77c-17.59,45.93-29.47,83.99-35.63,114.17c-7.92,38.02-5.01,59.66,8.73,64.92
			c24.35,7.87,49.89-9.3,76.63-51.52c19.63-31.25,39.8-73.91,60.51-127.97c6.92-18.08,12.77-33.88,17.53-47.4l6.68-18.28
			c2.21-5.78,8.27-8.34,18.18-7.66c9.9,0.68,20.18,3.06,30.85,7.15c10.3,3.94,19.3,8.74,26.99,14.38
			c7.68,5.64,10.66,10.72,8.93,15.24c-3.81,9.95-8.41,22.49-13.79,37.64c-6.7,18.58-13.44,36.74-20.22,54.45
			c-4.64,12.12-9.08,23.17-13.32,33.15C1784.71,935.88,1704.02,997.45,1612.71,962.49z"/>
	</g>
	<g>
		<path class="st1" d="M1922.52,639.14c-5.57-6.53-11.54-13.81-17.91-21.85c-9.32-11.76-18.7-23.86-28.16-36.29
			c-7.65-10.15-14.09-18.52-19.32-25.13c-2.38-3-1.33-7.54,3.13-13.61c4.47-6.08,10.12-11.83,16.96-17.25
			c7.08-5.61,14.28-9.85,21.58-12.71c7.31-2.86,12.49-2.37,15.53,1.47l9.37,12.2c6.8,9.07,14.95,19.61,24.46,31.61
			c28.43,35.88,53.76,63.29,75.98,82.21c30.18,25.52,53.52,32.41,70.02,20.71c9.12-7.23,6.19-24.24-8.8-51.05
			c-11.81-21.31-29.79-47.21-53.94-77.69c-17.21-21.72-35.03-42.86-53.47-63.42l-7.96-8.94c-2.85-3.6-2.92-8.43-0.2-14.49
			c2.72-6.06,7.2-12.49,13.43-19.29c6.24-6.8,13.14-13.19,20.7-19.18c10.08-7.99,19.9-14.15,29.45-18.5
			c9.55-4.34,16.16-4.94,19.83-1.79l7.85,8.43c10.83,10.95,23.97,25.94,39.42,44.95c12.08,15.24,24.79,32.08,38.12,50.52
			c13.34,18.44,25.12,37.63,35.35,57.55c10.22,19.93,17.16,40.03,20.81,60.29c3.65,20.26,2.1,40-4.65,59.21
			c-6.75,19.22-20.47,37.22-41.17,54.01C2088.32,769.14,2012.85,741.81,1922.52,639.14z"/>
	</g>
	<path class="st1" d="M1518.23,404.96c23.23,5.8,44.29,19.94,58.45,39.24c4.71,6.42,8.82,13.98,8.05,21.91
		c-1.07,10.96-11.06,18.92-21.2,23.23c-14.63,6.22-31.7,7.53-46.46,1.64C1476.03,474.61,1478.91,421.66,1518.23,404.96z"/>
	<path class="st1" d="M1592.42,401.65c-35.29-25.46-62.53-64.33-66.76-107.65c-4.23-43.31,18.01-89.95,57.7-107.8
		c13.99-6.29,31.15-8.66,44.17-0.56c10.51,6.53,16.23,18.45,20.89,29.91c21.45,52.77,31.94,109.43,37.31,166.14
		c2.13,22.52-3.19,46.89-30.23,45.07C1632.47,425.21,1610.92,415,1592.42,401.65z"/>
	<path class="st1" d="M1695.78,167.72c-0.77-19.12,0.83-39.4,11.6-55.22c11.23-16.5,30.65-25.47,49.89-30.75
		c19.57-5.37,40.62-7.68,60.04-1.79c24.83,7.53,44.41,28.08,54.8,51.86s12.42,50.51,10.27,76.37c-2.41,29.03-9.85,57.37-17.25,85.54
		c-4.25,16.17-8.59,32.56-16.97,47.03c-8.38,14.47-21.43,27.03-37.66,31.04c-31.31,7.74-51.13-18.83-64.24-42.21
		c-18.04-32.14-32.88-66.32-41.76-102.17C1699.64,207.86,1696.58,187.85,1695.78,167.72z"/>
	<path class="st1" d="M1994.42,194.59c22.59,10.63,36.29,35.17,39.53,59.92c3.33,25.39-3.16,51.95-17.82,72.95
		c-9.16,13.12-21.84,24.32-37.15,28.98c-15.31,4.65-33.36,1.84-44.75-9.4c-11.14-10.99-14.31-27.61-15.61-43.2
		c-2.13-25.59-5.13-66.02,8.22-89.24C1939.75,192.17,1971.71,183.9,1994.42,194.59z"/>
	<g>
		<path class="st1" d="M114.04,4224.86c-21.71,0-41.63-2.31-59.77-6.9s-27.84-10.72-29.11-18.39c-2.56-76.1-3.83-153.37-3.83-231.78
			c0-100.89,3.06-200.37,9.19-298.45c1.02-5.36,8.1-9.38,21.26-12.06c13.15-2.69,28.67-4.03,46.55-4.03
			c15.84,0,31.61,1.03,47.31,3.07c15.71,2.04,28.79,5.11,39.27,9.19c10.48,4.09,15.71,9.2,15.71,15.33l-0.39,9.96
			c23.24-6.13,45.21-9.19,65.9-9.19c33.45,0,63.41,6.7,89.83,20.11c26.44,13.41,48.91,31.1,67.43,53.06
			c18.51,21.97,32.62,46.49,42.33,73.56c9.7,27.07,14.56,54.27,14.56,81.61c0,23.24-3.77,45.58-11.3,67.04
			c-7.54,21.46-19.16,40.62-34.87,57.47c-15.71,16.86-35.82,30.21-60.33,40.04c-24.53,9.83-53.64,14.75-87.36,14.75
			c-27.85,0-59-3.84-93.48-11.5l2.69,116.47c0,7.15-3.96,12.96-11.88,17.44c-7.92,4.46-18.08,7.78-30.46,9.96
			C140.93,4223.76,127.84,4224.86,114.04,4224.86z M220.56,3999.58c18.89,0,34.47-4.98,46.74-14.94
			c12.26-9.97,21.32-22.99,27.2-39.08c5.87-16.09,8.81-33.2,8.81-51.34c0-21.7-3.9-42.84-11.69-63.41
			c-7.79-20.56-19.1-37.6-33.91-51.14c-14.82-13.54-32.82-20.31-54.02-20.31l-7.67,0.39c-2.81,68.71-4.21,137.8-4.21,207.27v32.56
			H220.56z"/>
		<path class="st1" d="M861.88,4185.4c-20.44,0-38.7-1.85-54.79-5.55c-16.08-3.71-24.77-9.01-26.05-15.9l-1.14-17.62
			c-35.77,10.22-68.08,15.33-96.93,15.33c-31.93,0-59.58-5.29-82.94-15.9c-23.37-10.59-42.66-24.96-57.86-43.1
			c-15.19-18.14-26.5-38.76-33.91-61.88c-7.41-23.11-11.11-47.06-11.11-71.83c0-29.12,4.79-57.91,14.37-86.39
			c9.58-28.48,23.75-54.34,42.52-77.59c18.78-23.23,41.82-41.89,69.16-55.94c27.33-14.04,58.62-21.07,93.86-21.07
			c15.84,0,32.31,1.53,49.42,4.6l1.15-22.22c1.02-5.62,9.32-9.96,24.9-13.03c15.57-3.06,33.33-4.6,53.25-4.6
			c14.81,0,29.31,0.9,43.48,2.69c14.17,1.79,25.79,4.47,34.86,8.05c9.07,3.57,13.61,8.05,13.61,13.41l-0.39,37.16
			c0,44.44,1.21,104.28,3.64,179.5c2.42,75.22,5.94,148.33,10.53,219.33v1.15c0,7.4-4.41,13.41-13.22,18
			c-8.81,4.6-20.11,7.99-33.91,10.15C890.62,4184.31,876.43,4185.4,861.88,4185.4z M757.67,4064.72c5.37,0,10.99-0.51,16.86-1.54
			c-6.13-94.5-9.19-178.15-9.19-250.94v-12.64c-20.69,2.05-37.93,9.97-51.72,23.75c-13.8,13.8-24.14,31.16-31.03,52.11
			c-6.9,20.94-10.34,42.66-10.34,65.13c0,20.95,3.12,40.93,9.38,59.96c6.26,19.02,15.77,34.47,28.55,46.35
			C722.93,4058.78,738.77,4064.72,757.67,4064.72z"/>
		<path class="st1" d="M1087.35,4105.36c-22.99,0-44.57-2.55-64.74-7.66c-20.19-5.11-30.27-11.63-30.27-19.54l-0.39-72.41
			c0-173.68,6.26-326.29,18.77-457.83c0.77-4.85,6.96-8.49,18.59-10.92c11.62-2.42,25.47-3.63,41.57-3.63
			c16.34,0,33.01,1.14,50,3.44c16.98,2.3,31.15,5.69,42.52,10.15c11.37,4.47,17.06,9.9,17.06,16.28v0.77
			c-11.75,127.2-17.62,281.47-17.62,462.81v49.03c0,10.47-7.41,18.01-22.22,22.61C1125.8,4103.06,1108.04,4105.36,1087.35,4105.36z"
			/>
		<path class="st1" d="M1396.75,4237.54c-18.91,0-37.55-3.77-55.94-11.31c-18.39-7.54-35-19.72-49.81-36.58
			c-14.82-16.86-26.69-39.21-35.63-67.05c-8.94-27.84-13.41-62.2-13.41-103.06c0.25-33.45,1.01-66.66,2.3-99.61l-18.78,0.77
			c-9.96,0-17.18-4.27-21.64-12.83c-4.46-8.56-6.7-17.82-6.7-27.78c0-8.42,1.41-16.15,4.22-23.17c2.8-7.03,6.76-11.55,11.88-13.61
			c7.15-2.55,18.51-4.72,34.1-6.51c2.3-50.31,4.98-99.73,8.05-148.27c1.28-7.15,9.89-12.64,25.86-16.47
			c15.96-3.83,34.03-5.75,54.21-5.75c14.82,0,29.12,1.15,42.92,3.45c13.79,2.3,25.15,5.87,34.1,10.72
			c8.94,4.86,13.41,11.11,13.41,18.78c-0.51,8.94-2.82,28.22-6.89,57.85c-2.82,20.44-6,44.83-9.58,73.17
			c9.96,0.26,19.16,0.83,27.58,1.73s14.81,6.19,19.16,15.89c4.34,9.71,6.51,20.31,6.51,31.8c0,10.22-1.99,19.54-5.94,27.97
			c-3.96,8.43-10.15,12.65-18.58,12.65l-10.34-1.15c-6.9-0.77-16.61-1.4-29.12-1.92c-9.71,85.06-14.56,148.4-14.56,190.03
			c0,37.8,4.22,56.84,12.65,57.08c6.64,0,14.55-7.53,23.75-22.6c9.19-15.07,17.49-33.84,24.9-56.32
			c3.84-11.49,11.62-17.24,23.37-17.24c9.2,0,19.21,3.2,30.08,9.58c10.85,6.39,20.11,13.86,27.78,22.41
			c7.66,8.57,11.49,16.28,11.49,23.18c0,1.28-0.13,2.43-0.38,3.45c-5.63,20.43-14.05,39.01-25.29,55.74
			c-11.24,16.74-26.18,30.08-44.82,40.03C1448.97,4232.56,1425.36,4237.54,1396.75,4237.54z"/>
	</g>
	<g>
		<path class="st1" d="M1612.71,4091.49c-31.33-12.41-54.7-28.93-70.13-49.56c-15.43-20.62-24.78-43.85-28.05-69.67
			c-3.28-25.82-2.53-52.69,2.25-80.62c4.78-27.92,11.73-55.53,20.83-82.83c9.1-27.3,18.06-52.43,26.85-75.4
			c11.44-28.79,21.61-51.85,30.53-69.17l6.28-13.15c3.23-5.19,11.43-6.97,24.6-5.35c13.17,1.62,27.34,5.34,42.53,11.16
			c11.39,4.36,22.13,9.46,32.24,15.3c10.1,5.84,17.94,11.9,23.52,18.18c5.58,6.28,7.33,12.13,5.25,17.56l-6.21,13.79
			c-14.45,31.78-27.94,64.04-40.47,96.77c-17.59,45.93-29.47,83.99-35.63,114.17c-7.92,38.02-5.01,59.66,8.73,64.92
			c24.35,7.87,49.89-9.3,76.63-51.52c19.63-31.25,39.8-73.91,60.51-127.97c6.92-18.08,12.77-33.88,17.53-47.4l6.68-18.28
			c2.21-5.78,8.27-8.34,18.18-7.66c9.9,0.68,20.18,3.06,30.85,7.15c10.3,3.94,19.3,8.74,26.99,14.38
			c7.68,5.64,10.66,10.72,8.93,15.24c-3.81,9.95-8.41,22.49-13.79,37.64c-6.7,18.58-13.44,36.74-20.22,54.45
			c-4.64,12.12-9.08,23.17-13.32,33.15C1784.71,4064.88,1704.02,4126.45,1612.71,4091.49z"/>
	</g>
	<g>
		<path class="st1" d="M1922.52,3768.14c-5.57-6.53-11.54-13.81-17.91-21.85c-9.32-11.76-18.7-23.86-28.16-36.29
			c-7.65-10.15-14.09-18.52-19.32-25.13c-2.38-3-1.33-7.54,3.13-13.61c4.47-6.08,10.12-11.83,16.96-17.25
			c7.08-5.61,14.28-9.85,21.58-12.71c7.31-2.86,12.49-2.37,15.53,1.47l9.37,12.2c6.8,9.07,14.95,19.61,24.46,31.61
			c28.43,35.88,53.76,63.29,75.98,82.21c30.18,25.52,53.52,32.41,70.02,20.71c9.12-7.23,6.19-24.24-8.8-51.05
			c-11.81-21.31-29.79-47.21-53.94-77.69c-17.21-21.72-35.03-42.86-53.47-63.42l-7.96-8.94c-2.85-3.6-2.92-8.43-0.2-14.49
			c2.72-6.06,7.2-12.49,13.43-19.29c6.24-6.8,13.14-13.19,20.7-19.18c10.08-7.99,19.9-14.15,29.45-18.5
			c9.55-4.34,16.16-4.94,19.83-1.79l7.85,8.43c10.83,10.95,23.97,25.94,39.42,44.95c12.08,15.24,24.79,32.08,38.12,50.52
			c13.34,18.44,25.12,37.63,35.35,57.55c10.22,19.93,17.16,40.03,20.81,60.29c3.65,20.26,2.1,40-4.65,59.21
			c-6.75,19.22-20.47,37.22-41.17,54.01C2088.32,3898.14,2012.85,3870.81,1922.52,3768.14z"/>
	</g>
	<path class="st1" d="M1518.23,3533.96c23.23,5.8,44.29,19.94,58.45,39.24c4.71,6.42,8.82,13.98,8.05,21.91
		c-1.07,10.96-11.06,18.92-21.2,23.23c-14.63,6.22-31.7,7.53-46.46,1.65C1476.03,3603.61,1478.91,3550.66,1518.23,3533.96z"/>
	<path class="st1" d="M1592.42,3530.65c-35.29-25.46-62.53-64.33-66.76-107.65c-4.23-43.31,18.01-89.95,57.7-107.8
		c13.99-6.29,31.15-8.66,44.17-0.56c10.51,6.53,16.23,18.45,20.89,29.91c21.45,52.77,31.94,109.43,37.31,166.14
		c2.13,22.52-3.19,46.89-30.23,45.07C1632.47,3554.21,1610.92,3544,1592.42,3530.65z"/>
	<path class="st1" d="M1695.78,3296.72c-0.77-19.12,0.83-39.4,11.6-55.22c11.23-16.5,30.65-25.47,49.89-30.75
		c19.57-5.37,40.62-7.68,60.04-1.79c24.83,7.53,44.41,28.08,54.8,51.86s12.42,50.51,10.27,76.37c-2.41,29.03-9.85,57.37-17.25,85.54
		c-4.25,16.17-8.59,32.56-16.97,47.03s-21.43,27.03-37.66,31.04c-31.31,7.74-51.13-18.83-64.24-42.21
		c-18.04-32.14-32.88-66.32-41.76-102.17C1699.64,3336.86,1696.58,3316.85,1695.78,3296.72z"/>
	<path class="st1" d="M1994.42,3323.59c22.59,10.63,36.29,35.17,39.53,59.92c3.33,25.39-3.16,51.95-17.82,72.95
		c-9.16,13.12-21.84,24.32-37.15,28.98s-33.36,1.84-44.75-9.4c-11.14-10.99-14.31-27.61-15.61-43.2
		c-2.13-25.59-5.13-66.02,8.22-89.24C1939.75,3321.17,1971.71,3312.9,1994.42,3323.59z"/>
	<text transform="matrix(1 0 0 1 -5737.9102 4293.0449)" class="st1" style="font-family:'SuperUnicorn'; font-size:302.2446px;">bazaar</text>
	<g>
		<g>
			<path class="st0" d="M-2726.34,3891.23c-15.02,0-28.8-1.6-41.35-4.78c-12.55-3.18-19.26-7.42-20.14-12.72
				c-1.77-52.65-2.65-106.11-2.65-160.36c0-69.8,2.12-138.62,6.36-206.48c0.71-3.71,5.61-6.49,14.71-8.35
				c9.1-1.86,19.83-2.79,32.2-2.79c10.96,0,21.87,0.71,32.73,2.13s19.92,3.53,27.17,6.36c7.25,2.83,10.87,6.36,10.87,10.6
				l-0.27,6.89c16.08-4.24,31.27-6.36,45.59-6.36c23.14,0,43.87,4.64,62.15,13.91c18.29,9.28,33.84,21.51,46.65,36.71
				c12.81,15.2,22.57,32.16,29.29,50.89c6.71,18.73,10.07,37.55,10.07,56.46c0,16.08-2.61,31.54-7.82,46.38
				c-5.21,14.85-13.25,28.1-24.12,39.76c-10.87,11.66-24.78,20.9-41.74,27.7c-16.97,6.8-37.11,10.2-60.44,10.2
				c-19.26,0-40.82-2.66-64.67-7.95l1.86,80.58c0,4.95-2.74,8.97-8.22,12.06c-5.48,3.09-12.51,5.38-21.07,6.89
				C-2707.74,3890.47-2716.8,3891.23-2726.34,3891.23z M-2652.65,3735.37c13.07,0,23.85-3.45,32.33-10.34
				c8.48-6.89,14.75-15.9,18.82-27.04c4.06-11.13,6.1-22.97,6.1-35.52c0-15.01-2.7-29.64-8.09-43.87
				c-5.39-14.22-13.21-26.02-23.46-35.38c-10.25-9.37-22.71-14.05-37.37-14.05l-5.3,0.27c-1.94,47.54-2.91,95.33-2.91,143.39v22.53
				H-2652.65z"/>
			<path class="st0" d="M-2208.96,3863.92c-14.14,0-26.77-1.28-37.91-3.84c-11.13-2.56-17.14-6.23-18.02-11l-0.79-12.19
				c-24.75,7.07-47.1,10.6-67.06,10.6c-22.09,0-41.22-3.66-57.38-11c-16.17-7.33-29.51-17.27-40.03-29.82s-18.34-26.81-23.46-42.81
				c-5.13-15.99-7.69-32.56-7.69-49.69c0-20.15,3.32-40.07,9.94-59.77s16.43-37.59,29.42-53.68c12.99-16.07,28.93-28.98,47.84-38.7
				c18.9-9.71,40.56-14.57,64.94-14.57c10.96,0,22.35,1.06,34.19,3.18l0.8-15.37c0.71-3.89,6.45-6.89,17.23-9.01
				c10.77-2.12,23.06-3.18,36.84-3.18c10.24,0,20.28,0.62,30.08,1.86c9.81,1.24,17.84,3.09,24.12,5.57
				c6.27,2.47,9.41,5.57,9.41,9.28l-0.27,25.71c0,30.74,0.84,72.15,2.52,124.18c1.67,52.04,4.11,102.62,7.29,151.74v0.8
				c0,5.12-3.05,9.28-9.14,12.45c-6.1,3.18-13.91,5.53-23.46,7.03C-2189.08,3863.17-2198.9,3863.92-2208.96,3863.92z
				 M-2281.06,3780.44c3.72,0,7.6-0.35,11.66-1.07c-4.24-65.37-6.36-123.25-6.36-173.61v-8.75c-14.31,1.42-26.24,6.89-35.78,16.43
				c-9.54,9.54-16.7,21.56-21.47,36.05c-4.78,14.49-7.16,29.51-7.16,45.06c0,14.5,2.16,28.32,6.49,41.49
				c4.33,13.16,10.91,23.85,19.75,32.07C-2305.09,3776.33-2294.14,3780.44-2281.06,3780.44z"/>
			<path class="st0" d="M-2052.98,3808.55c-15.9,0-30.84-1.77-44.79-5.3c-13.97-3.54-20.94-8.05-20.94-13.52l-0.27-50.09
				c0-120.16,4.33-225.74,12.98-316.74c0.53-3.36,4.81-5.87,12.86-7.56c8.04-1.67,17.62-2.51,28.76-2.51
				c11.3,0,22.84,0.79,34.59,2.38c11.75,1.59,21.55,3.94,29.42,7.03c7.86,3.09,11.8,6.85,11.8,11.26v0.53
				c-8.13,88-12.19,194.73-12.19,320.19v33.92c0,7.24-5.13,12.46-15.37,15.64C-2026.38,3806.96-2038.66,3808.55-2052.98,3808.55z"/>
			<path class="st0" d="M-1838.92,3900c-13.08,0-25.98-2.61-38.7-7.82c-12.72-5.21-24.22-13.65-34.46-25.31
				c-10.25-11.66-18.47-27.13-24.65-46.39c-6.19-19.26-9.28-43.03-9.28-71.3c0.17-23.14,0.7-46.12,1.59-68.91l-12.99,0.53
				c-6.89,0-11.89-2.96-14.97-8.88s-4.64-12.33-4.64-19.22c0-5.83,0.97-11.17,2.92-16.03c1.94-4.86,4.68-7.99,8.22-9.41
				c4.95-1.77,12.81-3.26,23.59-4.51c1.59-34.81,3.45-69,5.57-102.58c0.88-4.95,6.84-8.75,17.89-11.4
				c11.04-2.65,23.54-3.98,37.5-3.98c10.25,0,20.15,0.8,29.69,2.39c9.54,1.59,17.4,4.06,23.59,7.42c6.18,3.36,9.28,7.69,9.28,12.99
				c-0.35,6.19-1.95,19.53-4.77,40.02c-1.95,14.14-4.15,31.01-6.63,50.62c6.89,0.18,13.25,0.58,19.08,1.2s10.24,4.28,13.25,11
				c3,6.72,4.51,14.05,4.51,22c0,7.07-1.37,13.52-4.11,19.35c-2.74,5.83-7.03,8.75-12.85,8.75l-7.16-0.8
				c-4.78-0.53-11.49-0.97-20.15-1.33c-6.72,58.85-10.07,102.67-10.07,131.47c0,26.15,2.92,39.32,8.75,39.49
				c4.59,0,10.07-5.21,16.43-15.63c6.36-10.43,12.1-23.41,17.22-38.97c2.66-7.95,8.04-11.93,16.17-11.93
				c6.36,0,13.29,2.21,20.81,6.63c7.51,4.42,13.91,9.59,19.22,15.5c5.3,5.93,7.95,11.26,7.95,16.04c0,0.88-0.09,1.68-0.26,2.39
				c-3.89,14.14-9.72,26.99-17.5,38.56c-7.78,11.58-18.11,20.81-31.01,27.7C-1802.8,3896.55-1819.14,3900-1838.92,3900z"/>
		</g>
		<g>
			<path class="st0" d="M-1689.52,3798.95c-21.67-8.59-37.85-20.01-48.52-34.28c-10.67-14.27-17.14-30.34-19.41-48.2
				c-2.27-17.87-1.75-36.46,1.56-55.77c3.31-19.31,8.11-38.42,14.41-57.3c6.3-18.89,12.49-36.28,18.57-52.16
				c7.91-19.92,14.95-35.87,21.12-47.85l4.34-9.09c2.23-3.59,7.9-4.83,17.02-3.7c9.11,1.12,18.92,3.69,29.43,7.72
				c7.88,3.02,15.31,6.54,22.3,10.58c6.98,4.04,12.41,8.23,16.27,12.57c3.86,4.35,5.07,8.4,3.63,12.15l-4.3,9.54
				c-10,21.99-19.33,44.31-28,66.95c-12.17,31.78-20.39,58.1-24.65,78.99c-5.48,26.3-3.47,41.27,6.04,44.91
				c16.84,5.45,34.52-6.43,53.02-35.64c13.58-21.62,27.54-51.13,41.86-88.53c4.79-12.51,8.83-23.44,12.13-32.79l4.62-12.64
				c1.53-4,5.72-5.77,12.57-5.3c6.85,0.47,13.96,2.12,21.34,4.95c7.13,2.73,13.35,6.05,18.68,9.95c5.32,3.9,7.38,7.42,6.18,10.54
				c-2.63,6.88-5.82,15.56-9.54,26.04c-4.64,12.86-9.3,25.42-13.99,37.67c-3.21,8.38-6.28,16.03-9.22,22.94
				C-1570.52,3780.55-1626.35,3823.14-1689.52,3798.95z"/>
		</g>
		<g>
			<path class="st0" d="M-1475.19,3575.25c-3.85-4.52-7.98-9.56-12.39-15.12c-6.45-8.13-12.94-16.51-19.48-25.11
				c-5.29-7.02-9.75-12.82-13.37-17.38c-1.64-2.07-0.92-5.22,2.16-9.42c3.09-4.2,7-8.18,11.73-11.93c4.9-3.88,9.88-6.81,14.93-8.79
				c5.06-1.98,8.64-1.64,10.74,1.02l6.49,8.44c4.7,6.28,10.34,13.57,16.92,21.87c19.67,24.83,37.19,43.78,52.56,56.88
				c20.88,17.65,37.03,22.43,48.44,14.32c6.31-5,4.28-16.77-6.09-35.32c-8.17-14.74-20.61-32.66-37.32-53.75
				c-11.91-15.03-24.24-29.65-36.99-43.87l-5.5-6.18c-1.97-2.49-2.02-5.83-0.14-10.03c1.88-4.19,4.98-8.64,9.29-13.34
				c4.32-4.7,9.09-9.13,14.32-13.27c6.98-5.53,13.77-9.79,20.37-12.8c6.61-3.01,11.18-3.42,13.72-1.24l5.43,5.83
				c7.49,7.58,16.58,17.95,27.27,31.1c8.35,10.54,17.15,22.19,26.38,34.95c9.23,12.76,17.38,26.03,24.45,39.82
				c7.07,13.79,11.87,27.69,14.39,41.71c2.52,14.02,1.45,27.67-3.22,40.97c-4.67,13.3-14.16,25.75-28.48,37.36
				C-1360.48,3665.19-1412.69,3646.29-1475.19,3575.25z"/>
		</g>
		<path class="st0" d="M-1754.88,3413.24c16.07,4.01,30.64,13.79,40.44,27.15c3.26,4.44,6.1,9.68,5.57,15.16
			c-0.74,7.58-7.65,13.09-14.67,16.07c-10.12,4.31-21.93,5.21-32.15,1.14C-1784.08,3461.43-1782.09,3424.8-1754.88,3413.24z"/>
		<path class="st0" d="M-1703.56,3410.95c-24.42-17.62-43.26-44.51-46.19-74.47c-2.93-29.97,12.46-62.23,39.92-74.58
			c9.68-4.35,21.55-5.99,30.56-0.39c7.27,4.52,11.23,12.76,14.45,20.69c14.84,36.51,22.1,75.71,25.81,114.94
			c1.48,15.58-2.2,32.44-20.92,31.18C-1675.85,3427.25-1690.75,3420.19-1703.56,3410.95z"/>
		<path class="st0" d="M-1632.05,3249.11c-0.53-13.23,0.57-27.26,8.02-38.2c7.77-11.41,21.2-17.62,34.51-21.27
			c13.54-3.72,28.1-5.32,41.53-1.24c17.18,5.21,30.72,19.43,37.91,35.88c7.19,16.45,8.59,34.94,7.1,52.83
			c-1.67,20.08-6.81,39.69-11.93,59.18c-2.94,11.19-5.94,22.53-11.74,32.53c-5.8,10.01-14.83,18.7-26.06,21.47
			c-21.66,5.36-35.37-13.03-44.45-29.2c-12.48-22.24-22.75-45.88-28.89-70.68C-1629.38,3276.88-1631.49,3263.04-1632.05,3249.11z"/>
		<path class="st0" d="M-1425.44,3267.71c15.63,7.35,25.11,24.33,27.35,41.45c2.3,17.57-2.19,35.94-12.33,50.47
			c-6.34,9.08-15.11,16.83-25.7,20.05c-10.59,3.22-23.08,1.27-30.96-6.5c-7.71-7.6-9.9-19.1-10.8-29.89
			c-1.47-17.71-3.55-45.67,5.69-61.74C-1463.26,3266.03-1441.15,3260.31-1425.44,3267.71z"/>
	</g>
	<text transform="matrix(1 0 0 1 -2590.9099 4293.0449)" class="st0" style="font-family:'SuperUnicorn'; font-size:302.2446px;">bazaar</text>
</g>
</svg>
