<?xml version="1.0" encoding="utf-8"?>
<!-- Generator: Adobe Illustrator 24.3.0, SVG Export Plug-In . SVG Version: 6.00 Build 0)  -->
<svg version="1.1" xmlns="http://www.w3.org/2000/svg" xmlns:xlink="http://www.w3.org/1999/xlink" x="0px" y="0px"
	 viewBox="0 0 3000 3000" style="enable-background:new 0 0 3000 3000;" xml:space="preserve">
<style type="text/css">
	.st0{display:none;}
	.st1{display:inline;fill:#A03049;}
	.st2{fill:#A03048;}
</style>
<g id="Layer_2" class="st0">
	<rect x="-130" y="-64.37" class="st1" width="3154" height="3115.37"/>
</g>
<g id="Layer_1">
	<g>
		<path class="st2" d="M793.86,2916.12c-101.87-40.36-177.89-94.07-228.05-161.15c-50.17-67.07-80.58-142.6-91.23-226.57
			c-10.68-83.98-8.22-171.35,7.33-262.15c15.55-90.78,38.13-180.57,67.74-269.35c29.6-88.78,58.71-170.51,87.31-245.18
			c37.19-93.63,70.28-168.61,99.27-224.93l20.41-42.75c10.5-16.87,37.16-22.68,79.99-17.41c42.81,5.28,88.91,17.36,138.31,36.28
			c37.04,14.18,71.98,30.76,104.83,49.75c32.83,18.98,58.33,38.68,76.47,59.1c18.13,20.43,23.83,39.46,17.07,57.1l-20.2,44.86
			c-47,103.36-90.87,208.26-131.62,314.68c-57.19,149.36-95.82,273.11-115.87,371.27c-25.76,123.63-16.3,194,28.4,211.11
			c79.18,25.59,162.25-30.24,249.19-167.52c63.85-101.62,129.44-240.33,196.76-416.15c22.51-58.79,41.52-110.17,57-154.14
			l21.73-59.43c7.2-18.81,26.9-27.12,59.11-24.91c32.18,2.21,65.61,9.96,100.32,23.25c33.5,12.83,62.77,28.42,87.78,46.76
			c24.99,18.33,34.68,34.86,29.05,49.55c-12.38,32.35-27.34,73.14-44.84,122.38c-21.79,60.43-43.7,119.47-65.76,177.08
			c-15.09,39.4-29.54,75.33-43.32,107.81C1353.18,2829.59,1090.78,3029.81,793.86,2916.12z"/>
	</g>
	<g>
		<path class="st2" d="M1801.3,1864.63c-18.1-21.23-37.51-44.92-58.23-71.07c-30.3-38.24-60.82-77.58-91.58-118.01
			c-24.88-33.01-45.83-60.24-62.84-81.71c-7.73-9.75-4.33-24.51,10.17-44.27c14.53-19.76,32.91-38.46,55.15-56.08
			c23.03-18.25,46.42-32.02,70.17-41.32c23.78-9.3,40.61-7.7,50.5,4.78l30.48,39.69c22.1,29.51,48.62,63.76,79.54,102.78
			c92.46,116.69,174.82,205.8,247.07,267.33c98.14,82.97,174.04,105.41,227.71,67.33c29.67-23.51,20.12-78.84-28.61-166.01
			c-38.39-69.31-96.86-153.52-175.41-252.65c-55.96-70.63-113.92-139.38-173.88-206.22l-25.87-29.06
			c-9.28-11.71-9.49-27.41-0.65-47.13c8.85-19.71,23.41-40.61,43.68-62.71c20.29-22.11,42.72-42.9,67.3-62.38
			c32.79-25.98,64.7-46.02,95.75-60.15c31.06-14.13,52.55-16.06,64.47-5.82l25.53,27.41c35.22,35.62,77.96,84.35,128.2,146.17
			c39.27,49.56,80.6,104.32,123.98,164.29c43.38,59.96,81.7,122.36,114.95,187.16c33.25,64.82,55.81,130.16,67.66,196.05
			c11.86,65.88,6.82,130.07-15.13,192.56c-21.95,62.5-66.57,121.04-133.86,175.63C2340.48,2287.38,2095.06,2198.52,1801.3,1864.63z"
			/>
	</g>
	<path class="st2" d="M486.63,1103.12c75.54,18.86,144.01,64.83,190.07,127.6c15.31,20.87,28.68,45.48,26.17,71.24
		c-3.47,35.65-35.98,61.52-68.93,75.54c-47.58,20.24-103.07,24.5-151.1,5.35C349.38,1329.63,358.75,1157.45,486.63,1103.12z"/>
	<path class="st2" d="M727.86,1092.35c-114.77-82.8-203.33-209.2-217.09-350.06s58.56-292.52,187.64-350.55
		c45.49-20.45,101.28-28.16,143.64-1.82c34.17,21.25,52.78,59.99,67.93,97.26c69.74,171.6,103.87,355.84,121.33,540.25
		c6.93,73.24-10.36,152.48-98.31,146.56C858.1,1168.96,788.05,1135.77,727.86,1092.35z"/>
	<path class="st2" d="M1063.98,331.65c-2.49-62.19,2.69-128.11,37.71-179.57c36.51-53.64,99.65-82.82,162.23-99.99
		c63.63-17.47,132.09-24.98,195.23-5.83c80.76,24.5,144.41,91.31,178.2,168.64s40.38,164.24,33.39,248.34
		c-7.84,94.39-32.02,186.55-56.09,278.15c-13.82,52.58-27.93,105.88-55.17,152.92c-27.24,47.05-69.7,87.89-122.47,100.94
		c-101.8,25.17-166.25-61.25-208.91-137.27c-58.66-104.53-106.91-215.67-135.81-332.23C1076.53,462.19,1066.6,397.12,1063.98,331.65
		z"/>
	<path class="st2" d="M2035.13,419.05c73.44,34.57,118.01,114.36,128.56,194.85c10.82,82.58-10.27,168.93-57.95,237.21
		c-29.79,42.66-71.02,79.1-120.8,94.23c-49.78,15.14-108.47,5.97-145.51-30.58c-36.22-35.74-46.53-89.77-50.75-140.48
		c-6.93-83.23-16.69-214.68,26.73-290.2C1857.33,411.17,1961.27,384.28,2035.13,419.05z"/>
</g>
</svg>
