<?xml version="1.0" encoding="utf-8"?>
<!-- Generator: Adobe Illustrator 24.3.0, SVG Export Plug-In . SVG Version: 6.00 Build 0)  -->
<svg version="1.1" id="Layer_1" xmlns="http://www.w3.org/2000/svg" xmlns:xlink="http://www.w3.org/1999/xlink" x="0px" y="0px"
	 viewBox="0 0 1012 1350" style="enable-background:new 0 0 1012 1350;" xml:space="preserve">
<style type="text/css">
	.st0{fill:#A03048;stroke:#FFFFFF;stroke-miterlimit:10;}
	.st1{fill:#A03048;}
	.st2{fill:none;stroke:#FFFFFF;stroke-miterlimit:10;}
</style>
<g>
	<path class="st0" d="M294.93,432.32"/>
</g>
<g>
	<path class="st1" d="M355.96,634.43c6.08-1.62,11.93-4.54,17.37-7.94c5.45-3.42,10.47-7.6,14.61-12.38
		c1.13-1.13,2.09-2.37,3.01-3.63c0.91-1.26,2-2.43,2.72-3.78l2.43-3.93l2.12-4.3c2.6-5.83,4.8-11.94,5.86-18.36
		c4.87-25.53-2.63-53.5-19.07-72.05c-8.27-9.12-18.8-16.47-30.51-21.16c-1.43-0.66-2.91-1.22-4.43-1.69c-1.5-0.5-2.98-1.05-4.5-1.51
		c-3.08-0.77-6.11-1.74-9.26-2.24c-6.22-1.34-12.61-1.88-18.96-2.09c-12.73-0.25-25.46,1.5-37.32,5.31
		c-12,3.69-23.37,9.52-33.9,16.36c-10.49,6.97-20.12,15.19-28.84,24.16c-8.67,9.05-16.49,18.8-23.39,29.02
		c-3.48,5.1-6.53,10.43-9.64,15.67c-1.63,2.58-2.89,5.36-4.32,8.03c-1.36,2.71-2.86,5.33-4.09,8.08
		c-2.39,5.53-5.09,10.87-7.05,16.48c-1.06,2.77-2.12,5.53-3.17,8.28c-0.9,2.81-1.8,5.6-2.69,8.38
		c-7.12,22.28-10.82,44.82-11.84,66.58c-1.05,21.77,0.57,42.8,4.34,62.45c7.47,39.39,23.98,72.7,42.4,98.95
		c4.51,6.66,9.45,12.66,14.1,18.54c4.97,5.59,9.61,11.14,14.56,15.98c4.73,5.08,9.71,9.44,14.34,13.78
		c4.76,4.16,9.4,8.03,13.86,11.6c18.09,14,33.56,23.17,44.27,28.98c2.63,1.58,5.01,2.82,7.08,3.9c2.05,1.1,3.76,2.07,5.12,2.9
		c2.72,1.67,4.04,2.78,3.84,3.31c-0.19,0.53-1.89,0.46-5.04-0.2c-1.58-0.33-3.52-0.8-5.82-1.42c-2.31-0.59-4.96-1.37-7.88-2.49
		c-2.94-1.1-6.22-2.33-9.84-3.69c-3.56-1.52-7.38-3.33-11.55-5.25c-8.27-4-17.55-9.19-27.61-15.71c-4.97-3.33-10.14-7-15.47-11.01
		c-5.18-4.18-10.76-8.44-16.09-13.46c-5.56-4.78-10.83-10.32-16.45-15.97c-5.3-5.94-10.91-12.05-16.1-18.9
		c-10.57-13.53-20.7-29.01-29.44-46.57c-8.75-17.53-16.03-37.18-20.89-58.48c-4.88-21.29-7.39-44.21-6.93-68.08
		c0.43-23.87,3.83-48.73,11.09-73.52c0.92-3.1,1.84-6.21,2.76-9.33c1.09-3.07,2.19-6.15,3.29-9.25c2.06-6.25,4.89-12.27,7.43-18.46
		c1.31-3.08,2.9-6.05,4.36-9.09c1.53-3.01,2.88-6.13,4.64-9.05c3.35-5.93,6.66-11.95,10.46-17.76
		c15.09-23.22,34.5-45.24,59.41-62.34c12.51-8.41,26.2-15.7,41.24-20.57c15.07-5.04,31.06-7.46,47.29-7.32
		c8.11,0.17,16.29,0.8,24.41,2.43c4.08,0.65,8.09,1.81,12.14,2.83c2.01,0.59,3.99,1.29,5.99,1.93c2.01,0.62,3.98,1.35,5.93,2.2
		c15.77,6.2,30.5,16.04,42.53,29.18c11.72,13.3,20.29,29.23,24.84,46.3l0.89,3.19l0.67,3.25c0.43,2.17,0.91,4.33,1.27,6.52
		c0.53,4.4,1.22,8.8,1.28,13.26c0.51,8.9-0.17,17.91-1.81,26.81c-1.5,8.94-4.48,17.69-8.27,26.11l-3.09,6.23
		c-1.17,2.05-2.47,4.08-3.72,6.11c-1.2,2.08-2.73,3.88-4.13,5.8c-1.41,1.91-2.88,3.77-4.51,5.47c-6.21,7.11-13.47,13.19-21.42,18.22
		c-7.96,5.01-16.54,9.23-25.9,11.8c-9.31,2.62-19.19,3.9-29.23,3.25c-10.04-0.53-20.21-3.57-29.21-8.43l-3.38-1.84
		c-1.12-0.63-2.09-1.43-3.14-2.15c-2.04-1.5-4.13-2.93-6.07-4.54l-5.48-5.27c-1.89-1.7-3.25-3.83-4.87-5.76
		c-6.11-7.93-10.59-16.88-13.17-25.94c-2.73-9.04-4.12-18.21-4.24-27.15c-0.27-4.5,0.13-8.9,0.33-13.32
		c0.2-2.19,0.51-4.35,0.77-6.53c0.24-2.18,0.56-4.33,1.03-6.46c1.43-8.59,4.11-16.82,7.07-24.9c3.19-7.91,7.21-15.95,11.57-22.75
		c17.32-28.2,41.68-50.26,68-66.46c26.36-16.25,55.19-26.84,83.7-32.63c28.55-5.87,56.85-7.34,83.91-6.34
		c27.1,1.02,53,4.48,77.71,9.06c49.44,9.33,94.62,24.37,132.75,44.63c19.08,10.06,36.42,21.26,51.79,33.2
		c15.4,11.99,28.69,24.77,40.07,37.59c11.35,12.87,20.72,25.84,28.4,38.31c3.96,6.16,7.17,12.42,10.35,18.28
		c2.87,6.04,5.74,11.69,7.9,17.31c9.19,22.23,12.87,40.64,14.22,53.09c0.87,6.21,0.78,11.03,0.73,14.24
		c-0.1,3.22-0.43,4.89-0.99,4.95c-0.56,0.06-1.34-1.48-2.32-4.51c-1.03-3.02-2-7.58-3.87-13.39c-3.36-11.67-8.85-28.75-19.31-49.05
		c-2.47-5.14-5.63-10.28-8.73-15.77c-3.42-5.32-6.83-11-10.95-16.56c-8-11.28-17.51-22.95-28.78-34.45
		c-11.3-11.47-24.3-22.83-39.13-33.38c-14.87-10.57-31.52-20.42-49.78-29.24c-36.47-17.77-79.6-30.78-127.02-38.57
		c-23.75-3.82-48.5-6.56-73.82-7.02c-25.3-0.45-51.25,1.4-76.85,7.07c-25.58,5.6-50.63,15.27-73.47,29.67
		c-22.73,14.33-43.15,33.36-57.22,56.72c-3.72,5.91-6.37,11.49-8.87,17.65c-2.18,6.19-4.27,12.52-5.28,19.07
		c-0.36,1.62-0.6,3.25-0.75,4.89c-0.18,1.64-0.42,3.27-0.57,4.91c-0.08,3.26-0.43,6.55-0.18,9.76c0.09,6.49,1.15,12.77,2.93,18.58
		c1.65,5.9,4.44,11.09,7.87,15.53c0.94,1.03,1.6,2.35,2.7,3.21c1.02,0.95,2.02,1.91,3,2.9c1.09,0.88,2.29,1.62,3.4,2.48
		c0.58,0.39,1.1,0.9,1.71,1.21l1.83,0.94C331.54,637.35,343.86,637.84,355.96,634.43z"/>
</g>
<g>
	<path class="st1" d="M276.36,915.04c-3.26-6-5.57-12.11-7.08-17.81c-1.42-5.73-2.1-11.01-2.07-15.46
		c0.01-8.93,2.19-14.25,4.35-14.26c2.34-0.04,4.29,4.94,7.03,12.31c1.34,3.7,3.02,7.99,4.96,12.65c2.03,4.63,4.36,9.62,7.12,14.7
		c2.82,5.05,5.78,9.69,8.6,13.89c2.89,4.13,5.61,7.86,8.02,10.97c4.75,6.26,7.91,10.57,6.62,12.53c-1.17,1.81-6.82,0.81-14.37-3.97
		c-3.78-2.36-7.87-5.76-11.94-10.03C283.6,926.23,279.68,921,276.36,915.04z"/>
</g>
<g>
	<path class="st1" d="M271.01,945.63c-8.2,2.19-15.11,6.47-20.06,10.12c-4.99,3.61-8.36,6.58-10.47,5.6
		c-1.96-0.85-2.25-6.07,1.66-13.06c3.77-6.88,12.37-15.16,24.67-18.44c12.31-3.26,23.89-0.35,30.57,3.75
		c6.87,4.13,9.21,8.8,7.93,10.51c-1.35,1.9-5.74,0.99-11.87,0.34C287.33,943.74,279.21,943.46,271.01,945.63z"/>
</g>
<g>
	<g>
		<path class="st2" d="M-451.59,685"/>
	</g>
</g>
<g>
	<g>
		<g>
			<path d="M-425.37,364.35c-13.19,12.72-22.91,28.34-28.88,44.59c-1.53,4.06-2.73,8.19-3.8,12.3c-1.04,4.12-1.8,8.27-2.42,12.39
				c-1.11,8.25-1.39,16.44-0.71,24.36c1.23,15.84,6.3,30.45,12.5,43.41c6.24,12.99,13.52,24.49,20.7,34.51
				c14.52,20.02,29.09,34.06,39.55,43.2c10.48,9.17,16.77,13.73,16.33,14.38c-0.19,0.29-1.98-0.53-5.22-2.35
				c-1.63-0.91-3.55-2.16-5.85-3.62c-1.15-0.72-2.34-1.59-3.63-2.47c-1.28-0.9-2.67-1.84-4.07-2.91
				c-11.38-8.35-27.07-21.91-42.76-41.99c-7.78-10.08-15.61-21.65-22.48-35.08c-3.42-6.72-6.56-13.93-9.07-21.66
				c-2.51-7.71-4.39-16.01-5.17-24.6c-0.86-8.59-0.68-17.48,0.42-26.44c0.62-4.47,1.4-8.96,2.48-13.44c1.12-4.46,2.38-8.94,4-13.34
				c6.33-17.62,16.77-34.57,31.16-48.44c3.61-3.44,7.4-6.66,11.35-9.62c3.97-2.94,8.12-5.59,12.35-7.94
				c8.45-4.76,17.29-8.45,26.2-11.23c8.91-2.81,17.92-4.51,26.76-5.64c8.85-1.1,17.57-1.56,26.04-1.38
				c8.47,0.16,16.71,0.7,24.64,1.77c1.99,0.21,3.95,0.52,5.89,0.82c1.94,0.32,3.88,0.56,5.78,0.93c3.81,0.71,7.55,1.4,11.21,2.22
				c14.62,3.25,28.1,7.71,39.56,13.72c5.73,2.98,10.95,6.31,15.58,9.87c4.64,3.59,8.63,7.43,12.02,11.31
				c3.38,3.89,6.14,7.83,8.38,11.62c1.16,1.87,2.07,3.78,2.98,5.57c0.8,1.84,1.62,3.56,2.2,5.28c2.52,6.78,3.29,12.39,3.42,16.15
				c0.13,1.88-0.02,3.32-0.11,4.28c-0.11,0.96-0.25,1.45-0.42,1.45c-0.17,0-0.37-0.47-0.6-1.4c-0.24-0.93-0.42-2.31-0.87-4.08
				c-0.76-3.55-2.11-8.74-5.02-14.91c-0.68-1.56-1.58-3.12-2.46-4.79c-0.99-1.61-1.96-3.33-3.16-5.01
				c-2.32-3.41-5.12-6.93-8.47-10.39c-3.36-3.45-7.24-6.84-11.68-9.97c-4.47-3.14-9.47-6.05-14.96-8.66
				c-10.96-5.26-23.89-9.13-38.1-11.93c-3.56-0.71-7.2-1.29-10.89-1.9c-1.85-0.32-3.72-0.51-5.6-0.78c-1.88-0.26-3.78-0.51-5.7-0.68
				c-7.66-0.88-15.58-1.26-23.68-1.29c-8.1-0.05-16.39,0.5-24.74,1.64c-8.34,1.16-16.8,2.84-25.08,5.53
				c-8.29,2.65-16.45,6.12-24.21,10.53c-3.91,2.19-7.67,4.6-11.29,7.29C-418.59,358.25-422.06,361.2-425.37,364.35z"/>
		</g>
	</g>
</g>
<g>
	<g>
		<g>
			<path d="M-367.85,597.82c-2.02-0.13-4.01-0.25-5.97-0.38c-0.98-0.06-1.94-0.12-2.87-0.14c-0.42-0.01-0.83-0.02-1.24-0.03
				l-0.66-0.02c-1.76-0.04-3.46-0.09-5.08-0.13c-3.25-0.06-6.2-0.08-8.72-0.15c-5.03-0.14-8.36-0.54-8.7-1.9
				c-0.33-1.32,2.49-3.38,7.63-5.09c2.56-0.85,5.7-1.59,9.23-2.05c1.77-0.23,3.64-0.39,5.58-0.47l0.73-0.02
				c0.17,0,0.15-0.01,0.15-0.01l0.01-0.01c0-0.01,0.01-0.02,0-0.03c0-0.02-0.01-0.03-0.01-0.03l0.02,0.01
				c0.03,0.02,0.09,0.05,0.16-0.01c0.02-0.01,0.04-0.03,0.05-0.06c0-0.02,0.01,0,0.02-0.01l-0.07-0.32l-0.14-0.64
				c-0.18-0.84-0.34-1.67-0.47-2.48c-0.56-3.24-0.81-6.18-0.82-8.66c-0.03-4.97,0.85-8.05,2.14-8.21c1.33-0.17,2.83,2.55,4.57,6.93
				c0.87,2.19,1.81,4.8,2.83,7.69c0.25,0.72,0.52,1.46,0.78,2.22l0.2,0.57l0.1,0.29l0.19,0.6c0.27,0.8,0.54,1.6,0.81,2.41
				c1.17,3.35,2.38,6.81,3.62,10.38C-365.12,597.99-366.48,597.9-367.85,597.82z"/>
		</g>
	</g>
</g>
<g>
	<g>
		<g>
			<path d="M-423.67,743.31c1.76-0.77,3.4-1.93,4.89-3.22c1.49-1.29,2.81-2.79,3.84-4.43c0.29-0.39,0.52-0.81,0.74-1.24
				c0.22-0.42,0.49-0.83,0.65-1.27l0.55-1.3l0.44-1.4c0.52-1.89,0.9-3.84,0.91-5.83c0.28-7.95-3.3-16.07-9.14-20.91
				c-2.93-2.37-6.46-4.11-10.22-4.98c-0.46-0.13-0.94-0.23-1.42-0.3c-0.48-0.08-0.95-0.18-1.43-0.25c-0.97-0.09-1.93-0.24-2.91-0.25
				c-1.94-0.12-3.9,0.02-5.84,0.25c-3.86,0.52-7.63,1.64-11.05,3.35c-3.46,1.68-6.63,3.97-9.49,6.54c-2.85,2.6-5.38,5.54-7.6,8.66
				c-2.2,3.14-4.11,6.46-5.72,9.88c-0.81,1.7-1.49,3.46-2.19,5.19c-0.37,0.86-0.62,1.76-0.93,2.63c-0.28,0.88-0.62,1.75-0.86,2.64
				c-0.46,1.78-1.03,3.53-1.36,5.32c-0.19,0.89-0.38,1.77-0.57,2.65c-0.14,0.89-0.28,1.78-0.42,2.66
				c-1.11,7.08-1.18,14.07-0.47,20.7c0.7,6.64,2.17,12.93,4.23,18.7c4.1,11.57,10.66,20.88,17.46,27.96
				c1.68,1.81,3.45,3.39,5.13,4.95c1.77,1.46,3.43,2.92,5.15,4.15c1.67,1.32,3.38,2.4,4.98,3.5c1.64,1.04,3.22,1.99,4.74,2.86
				c6.13,3.39,11.24,5.44,14.75,6.7c0.87,0.35,1.65,0.62,2.32,0.85c0.67,0.24,1.24,0.45,1.69,0.64c0.9,0.38,1.35,0.65,1.32,0.82
				c-0.03,0.17-0.55,0.23-1.53,0.18c-0.49-0.03-1.1-0.08-1.83-0.16c-0.73-0.07-1.57-0.18-2.5-0.39c-0.94-0.2-1.99-0.42-3.15-0.66
				c-1.15-0.29-2.39-0.66-3.74-1.05c-2.69-0.83-5.74-1.96-9.09-3.46c-1.66-0.78-3.4-1.65-5.2-2.61c-1.76-1.02-3.65-2.05-5.5-3.32
				c-1.91-1.19-3.76-2.62-5.73-4.06c-1.88-1.55-3.86-3.14-5.76-4.97c-3.83-3.6-7.62-7.81-11.09-12.72
				c-3.47-4.9-6.59-10.5-9.06-16.72c-2.47-6.21-4.3-13.03-5.28-20.28c-0.99-7.24-1.12-14.93-0.08-22.77
				c0.13-0.98,0.27-1.96,0.4-2.95c0.19-0.98,0.38-1.97,0.56-2.95c0.33-1.99,0.91-3.94,1.39-5.93c0.25-0.99,0.6-1.97,0.89-2.96
				c0.32-0.98,0.59-1.99,0.98-2.96c0.74-1.95,1.46-3.93,2.33-5.86c3.48-7.73,8.33-15.3,15.07-21.64c3.39-3.13,7.19-5.98,11.52-8.15
				c4.32-2.23,9.05-3.71,13.97-4.42c2.46-0.33,4.97-0.52,7.5-0.41c1.27,0,2.53,0.17,3.81,0.29c0.63,0.08,1.27,0.2,1.9,0.31
				c0.64,0.09,1.27,0.22,1.9,0.39c5.06,1.14,9.98,3.43,14.24,6.84c4.17,3.48,7.51,7.9,9.68,12.85l0.42,0.92l0.36,0.95
				c0.23,0.64,0.48,1.27,0.69,1.91c0.36,1.31,0.78,2.61,1.01,3.95c0.57,2.67,0.79,5.43,0.71,8.2c-0.04,2.77-0.53,5.56-1.28,8.29
				l-0.64,2.03c-0.26,0.68-0.56,1.35-0.84,2.02c-0.27,0.69-0.64,1.3-0.98,1.95c-0.34,0.65-0.7,1.28-1.11,1.87
				c-1.55,2.44-3.46,4.62-5.63,6.52c-2.18,1.89-4.58,3.57-7.29,4.78c-2.69,1.23-5.62,2.08-8.7,2.35c-3.06,0.31-6.28-0.13-9.23-1.19
				l-1.11-0.4c-0.37-0.14-0.7-0.33-1.05-0.5c-0.69-0.36-1.39-0.69-2.05-1.09l-1.9-1.34c-0.65-0.43-1.16-1.01-1.74-1.51
				c-2.22-2.11-3.99-4.61-5.2-7.23c-1.25-2.61-2.1-5.32-2.55-8.02c-0.29-1.35-0.38-2.7-0.52-4.05c-0.04-0.67-0.05-1.34-0.07-2.01
				c-0.03-0.67-0.03-1.34,0.01-2c0.03-2.67,0.46-5.28,0.97-7.87c0.6-2.54,1.44-5.16,2.44-7.43c3.92-9.34,10.26-17.16,17.47-23.29
				c7.22-6.15,15.45-10.7,23.8-13.79c8.37-3.11,16.86-4.88,25.1-5.84c8.25-0.96,16.25-1.12,23.94-0.89
				c15.4,0.51,29.78,2.95,42.26,7.3c6.24,2.15,12.02,4.73,17.23,7.63c5.22,2.91,9.84,6.15,13.88,9.5
				c4.04,3.36,7.48,6.85,10.39,10.27c1.49,1.68,2.75,3.42,3.99,5.05c1.15,1.69,2.28,3.27,3.2,4.87c3.82,6.3,5.8,11.7,6.79,15.4
				c0.55,1.84,0.75,3.3,0.89,4.28c0.12,0.98,0.1,1.5-0.07,1.54s-0.47-0.39-0.91-1.26c-0.45-0.87-0.96-2.2-1.8-3.87
				c-1.56-3.38-4.02-8.29-8.14-13.94c-0.99-1.44-2.18-2.85-3.38-4.37c-1.28-1.45-2.58-3.01-4.09-4.5
				c-2.95-3.04-6.37-6.13-10.32-9.08c-3.96-2.94-8.42-5.77-13.4-8.27c-4.99-2.5-10.49-4.71-16.43-6.52
				c-11.87-3.67-25.53-5.59-40.25-5.73c-7.37-0.05-14.99,0.28-22.67,1.33c-7.68,1.05-15.45,2.82-22.93,5.73
				c-7.48,2.89-14.61,6.99-20.85,12.41c-6.21,5.4-11.5,12.11-14.67,19.84c-0.85,1.96-1.39,3.78-1.86,5.76
				c-0.37,1.97-0.71,3.99-0.71,6.02c-0.03,0.51-0.03,1.01,0,1.52c0.02,0.5,0.02,1.01,0.06,1.51c0.13,0.99,0.18,2,0.4,2.96
				c0.33,1.96,0.95,3.81,1.76,5.49c0.78,1.71,1.86,3.15,3.11,4.33c0.33,0.27,0.59,0.64,0.97,0.85c0.35,0.24,0.7,0.48,1.04,0.74
				c0.37,0.21,0.77,0.38,1.14,0.59c0.19,0.09,0.37,0.22,0.57,0.29l0.6,0.2C-430.92,745.34-427.17,744.91-423.67,743.31z"/>
		</g>
	</g>
</g>
<g>
	<g>
		<g>
			<path d="M-416.94,842.78c-0.6,1.25-1.47,2.41-2.46,3.27c-0.98,0.86-1.96,1.42-2.82,1.83c-0.86,0.41-1.63,0.68-2.29,0.89
				c-0.67,0.22-1.33,0.42-1.98,0.59c-2.59,0.7-4.94,1.06-6.93,1.19c-3.98,0.25-6.56-0.36-6.94-1.68c-0.38-1.33,1.58-3.16,4.89-5.09
				c1.65-0.97,3.62-1.98,5.74-3.05c1.01-0.52,2.31-1.13,3.01-1.56c0.35-0.22,0.56-0.4,0.64-0.5c0.06-0.08,0.05-0.12,0.09-0.16
				c0.04-0.07,0.2-0.51,0.13-1.28c-0.04-0.74-0.25-1.68-0.52-2.59c-0.15-0.47-0.28-0.88-0.48-1.39c-0.21-0.55-0.42-1.09-0.63-1.61
				c-0.41-1.09-0.79-2.21-1.05-3.32c-0.55-2.2-0.49-4.37,0.08-5.71c0.56-1.36,1.39-1.86,2.04-1.73c0.69,0.13,1.21,0.79,1.84,1.56
				c0.63,0.78,1.37,1.67,2.45,2.92c0.54,0.62,1.15,1.33,1.85,2.19c0.35,0.43,0.71,0.88,1.09,1.4c0.38,0.52,0.82,1.2,1.19,1.88
				c0.76,1.38,1.45,2.95,1.82,4.92C-415.8,837.67-415.75,840.2-416.94,842.78z"/>
		</g>
	</g>
</g>
<g>
	<g>
		<path class="st2" d="M-394.59,923"/>
	</g>
</g>
<g>
	<g>
		<g>
			<path d="M-366.67,981.31c1.76-0.77,3.4-1.93,4.89-3.22c1.49-1.29,2.81-2.79,3.84-4.43c0.29-0.39,0.52-0.81,0.74-1.24
				c0.22-0.42,0.49-0.83,0.65-1.27l0.55-1.3l0.44-1.4c0.52-1.89,0.9-3.84,0.91-5.83c0.28-7.95-3.3-16.07-9.14-20.91
				c-2.93-2.37-6.46-4.11-10.22-4.98c-0.46-0.13-0.94-0.23-1.42-0.3c-0.48-0.08-0.95-0.18-1.43-0.25c-0.97-0.09-1.93-0.24-2.91-0.25
				c-1.94-0.12-3.9,0.02-5.84,0.25c-3.86,0.52-7.63,1.64-11.05,3.35c-3.46,1.68-6.63,3.97-9.49,6.54c-2.85,2.6-5.38,5.54-7.6,8.66
				c-2.2,3.14-4.11,6.46-5.72,9.88c-0.81,1.7-1.49,3.46-2.19,5.19c-0.37,0.86-0.62,1.76-0.93,2.63c-0.28,0.88-0.62,1.75-0.86,2.64
				c-0.46,1.78-1.03,3.53-1.36,5.32c-0.19,0.89-0.38,1.77-0.57,2.65c-0.14,0.89-0.28,1.78-0.42,2.66
				c-1.11,7.08-1.18,14.07-0.47,20.7c0.7,6.64,2.17,12.93,4.23,18.7c4.1,11.57,10.66,20.88,17.46,27.96
				c1.68,1.81,3.45,3.39,5.13,4.95c1.77,1.46,3.43,2.92,5.15,4.15c1.67,1.32,3.38,2.4,4.98,3.5c1.64,1.04,3.22,1.99,4.74,2.86
				c6.13,3.39,11.24,5.44,14.75,6.7c0.87,0.35,1.65,0.62,2.32,0.85c0.67,0.24,1.24,0.45,1.69,0.64c0.9,0.38,1.35,0.65,1.32,0.82
				c-0.03,0.17-0.55,0.23-1.53,0.18c-0.49-0.03-1.1-0.08-1.83-0.16c-0.73-0.07-1.57-0.18-2.5-0.39c-0.94-0.2-1.99-0.42-3.15-0.66
				c-1.15-0.29-2.39-0.66-3.74-1.05c-2.69-0.83-5.74-1.96-9.09-3.46c-1.66-0.78-3.4-1.65-5.2-2.61c-1.76-1.02-3.65-2.05-5.5-3.32
				c-1.91-1.19-3.76-2.62-5.73-4.06c-1.88-1.55-3.86-3.14-5.76-4.97c-3.83-3.6-7.62-7.81-11.09-12.72
				c-3.47-4.9-6.59-10.5-9.06-16.72c-2.47-6.21-4.3-13.03-5.28-20.28c-0.99-7.24-1.12-14.93-0.08-22.77
				c0.13-0.98,0.27-1.96,0.4-2.95c0.19-0.98,0.38-1.97,0.56-2.95c0.33-1.99,0.91-3.94,1.39-5.93c0.25-0.99,0.6-1.97,0.89-2.96
				c0.32-0.98,0.59-1.99,0.98-2.96c0.74-1.95,1.46-3.93,2.33-5.86c3.48-7.73,8.33-15.3,15.07-21.64c3.39-3.13,7.19-5.98,11.52-8.15
				c4.32-2.23,9.05-3.71,13.97-4.42c2.46-0.33,4.97-0.52,7.5-0.41c1.27,0,2.53,0.17,3.81,0.29c0.63,0.08,1.27,0.2,1.9,0.31
				c0.64,0.09,1.27,0.22,1.9,0.39c5.06,1.14,9.98,3.43,14.24,6.84c4.17,3.48,7.51,7.9,9.68,12.85l0.42,0.92l0.36,0.95
				c0.23,0.64,0.48,1.27,0.69,1.91c0.36,1.31,0.78,2.61,1.01,3.95c0.57,2.67,0.79,5.43,0.71,8.2c-0.04,2.77-0.53,5.56-1.28,8.29
				l-0.64,2.03c-0.26,0.68-0.56,1.35-0.84,2.02c-0.27,0.69-0.64,1.3-0.98,1.95c-0.34,0.65-0.7,1.28-1.11,1.87
				c-1.55,2.44-3.46,4.62-5.63,6.52c-2.18,1.89-4.58,3.57-7.29,4.78c-2.69,1.23-5.62,2.08-8.7,2.35c-3.06,0.31-6.28-0.13-9.23-1.19
				l-1.11-0.4c-0.37-0.14-0.7-0.33-1.05-0.5c-0.69-0.36-1.39-0.69-2.05-1.09l-1.9-1.34c-0.65-0.43-1.16-1.01-1.74-1.51
				c-2.22-2.11-3.99-4.61-5.2-7.23c-1.25-2.61-2.1-5.32-2.55-8.02c-0.29-1.35-0.38-2.7-0.52-4.05c-0.04-0.67-0.05-1.34-0.07-2.01
				c-0.03-0.67-0.03-1.34,0.01-2c0.03-2.67,0.46-5.28,0.97-7.87c0.6-2.54,1.44-5.16,2.44-7.43c3.92-9.34,10.26-17.16,17.47-23.29
				c7.22-6.15,15.45-10.7,23.8-13.79c8.37-3.11,16.86-4.88,25.1-5.84c8.25-0.96,16.25-1.12,23.94-0.89
				c15.4,0.51,29.78,2.95,42.26,7.3c6.24,2.15,12.02,4.73,17.23,7.63c5.22,2.91,9.84,6.15,13.88,9.5
				c4.04,3.36,7.48,6.85,10.39,10.27c1.49,1.68,2.75,3.42,3.99,5.05c1.15,1.69,2.28,3.27,3.2,4.87c3.82,6.3,5.8,11.7,6.79,15.4
				c0.55,1.84,0.75,3.3,0.89,4.28c0.12,0.98,0.1,1.5-0.07,1.54s-0.47-0.39-0.91-1.26c-0.45-0.87-0.96-2.2-1.8-3.87
				c-1.56-3.38-4.02-8.29-8.14-13.94c-0.99-1.44-2.18-2.85-3.38-4.37c-1.28-1.45-2.58-3.01-4.09-4.5
				c-2.95-3.04-6.37-6.13-10.32-9.08c-3.96-2.94-8.42-5.77-13.4-8.27c-4.99-2.5-10.49-4.71-16.43-6.52
				c-11.87-3.67-25.53-5.59-40.25-5.73c-7.37-0.05-14.99,0.28-22.67,1.33c-7.68,1.05-15.45,2.82-22.93,5.73
				c-7.48,2.89-14.61,6.99-20.85,12.41c-6.21,5.4-11.5,12.11-14.67,19.84c-0.85,1.96-1.39,3.78-1.86,5.76
				c-0.37,1.97-0.71,3.99-0.71,6.02c-0.03,0.51-0.03,1.01,0,1.52c0.02,0.5,0.02,1.01,0.06,1.51c0.13,0.99,0.18,2,0.4,2.96
				c0.33,1.96,0.95,3.81,1.76,5.49c0.78,1.71,1.86,3.15,3.11,4.33c0.33,0.27,0.59,0.64,0.97,0.85c0.35,0.24,0.7,0.48,1.04,0.74
				c0.37,0.21,0.77,0.38,1.14,0.59c0.19,0.09,0.37,0.22,0.57,0.29l0.6,0.2C-373.92,983.34-370.17,982.91-366.67,981.31z"/>
		</g>
	</g>
</g>
<g>
	<g>
		<g>
			<path d="M-377.64,1069.96c-1.27-1.66-2.25-3.41-2.97-5.06c-0.7-1.67-1.15-3.23-1.35-4.58c-0.41-2.7,0-4.41,0.65-4.52
				c0.71-0.12,1.53,1.29,2.7,3.4c0.58,1.06,1.29,2.28,2.09,3.6c0.83,1.31,1.77,2.71,2.84,4.12c1.09,1.4,2.2,2.66,3.25,3.8
				c1.07,1.12,2.07,2.11,2.94,2.94c1.73,1.67,2.89,2.83,2.59,3.48c-0.27,0.6-2.03,0.56-4.53-0.53c-1.25-0.54-2.65-1.38-4.08-2.48
				C-374.93,1073.01-376.36,1071.61-377.64,1069.96z"/>
		</g>
	</g>
</g>
<g>
	<g>
		<g>
			<path d="M-377.83,1079.47c-2.38,1.05-4.27,2.66-5.6,4c-1.34,1.33-2.22,2.38-2.91,2.18c-0.63-0.17-0.96-1.73-0.11-4.03
				c0.82-2.26,3.04-5.17,6.6-6.73c3.57-1.56,7.21-1.22,9.43-0.29c2.27,0.93,3.2,2.23,2.89,2.81c-0.32,0.64-1.69,0.57-3.58,0.66
				C-372.98,1078.13-375.45,1078.43-377.83,1079.47z"/>
		</g>
	</g>
</g>
</svg>
